<svg xmlns="http://www.w3.org/2000/svg" xmlns:xlink="http://www.w3.org/1999/xlink" viewBox="0 0 437.29 411.72"><defs><style>.cls-1,.cls-13{fill:none;}.cls-2{isolation:isolate;}.cls-11,.cls-3{fill:#160b1c;}.cls-3{mix-blend-mode:multiply;opacity:0.2;}.cls-4{fill:#8cd4e5;}.cls-5{fill:#fff;}.cls-6{fill:#58b3bc;}.cls-7{fill:#efa158;}.cls-8{fill:#fecb6c;}.cls-9{fill:#485f89;}.cls-10{fill:#995c57;}.cls-12{clip-path:url(#clip-path);}.cls-13{stroke:#fecb6c;stroke-miterlimit:10;stroke-width:3px;}.cls-14{fill:#b59dbf;}.cls-15{fill:#ece1f0;}.cls-16{fill:#615873;}.cls-17{fill:#ba4429;}.cls-18{fill:#de7c64;}</style><clipPath id="clip-path"><path class="cls-1" d="M292,184.32a192.13,192.13,0,0,1-2.82,26.94c-36.47,16.05-90.4,17.93-128.55,4.49-3.19-28,7.83-55.72,14.22-70.69A18.49,18.49,0,0,0,183,160.58c5.07,3.67,11.75,5.51,19,5.51A52.53,52.53,0,0,0,225.84,160c13.46-7,23.51-20.68,32.37-32.74,8.16-11.1,15.21-20.7,22.83-22.36.66,2.4,1.29,4.91,1.92,7.53-.21,0-.43.11-.64.16-7.86,2.11-22.07,19.93-20.05,45.12,1.39,17.29,12,19.79,15.23,20.14a15.86,15.86,0,0,0,1.67.09,14.27,14.27,0,0,0,12.7-7.43A134.33,134.33,0,0,1,292,184.32Z"/></clipPath></defs><g class="cls-2"><g id="Layer_2" data-name="Layer 2"><g id="OBJECTS"><ellipse class="cls-3" cx="221.52" cy="380.65" rx="146.63" ry="31.07"/><path class="cls-4" d="M352.5,345.32c-2.34,8.82-32.1,34.3-67.62,34.3-37.86,0-120.81-14.57-164.39-28.85-6.27-2.07-14.14-8.59-18.13-13.71-5.73-7.38-2.76-16.14,1.94-21.88C111,307,124,301,136.67,307.34a103.85,103.85,0,0,0,21.82,8.45c1.17.33,2.39.67,3.69,1,32.68,9.62,90.68,16.58,121.85,20.31,7.45.9,13.34,1.61,17.18,2.14a187.87,187.87,0,0,0,30.32,1.28c9-.17,16.09-.3,20.2,2l0,0a.41.41,0,0,0,.11.07,1.45,1.45,0,0,1,.28.21l0,.05,0,0A2.42,2.42,0,0,1,352.5,345.32Z"/><path class="cls-5" d="M347.2,345.51c.52,3-23.58,34.11-79.08,33.41,6.22.45,11.86.7,16.76.7,35.52,0,65.28-25.48,67.62-34.3a2.42,2.42,0,0,0-.27-2.35l0,0,0-.05a1.45,1.45,0,0,0-.28-.21.41.41,0,0,1-.11-.07l0,0c-4.11-2.32-11.22-2.19-20.2-2C331.53,340.57,346.6,342,347.2,345.51Z"/><path class="cls-6" d="M353.76,349.52c-4.18,13.63-37.41,35.34-68.88,35.34-37.86,0-120.81-14.57-164.39-28.85-6.27-2.07-14.14-8.59-18.13-13.7a19,19,0,0,1-4-11.84,15.66,15.66,0,0,0,3.17,7.24c4,5.18,11.94,11.87,18.65,14.08,43.65,14.3,126.77,28.89,164.72,28.9h0c34.28,0,65.87-24.63,68.64-35.09a4.71,4.71,0,0,0,.16-.78A6.54,6.54,0,0,1,353.76,349.52Z"/><path class="cls-7" d="M146.59,372.06a11.54,11.54,0,0,0-6.46-5.31,12,12,0,0,0-3.8-.62,10.72,10.72,0,0,0-7.85,3.28l-.44.52-.25.33c0,.05-.08.09-.1.13a9,9,0,0,0-1.23,2.41,9.61,9.61,0,0,0,.78,7.76,11.45,11.45,0,0,0,6.46,5.3,12,12,0,0,0,3.82.63h.36a1.74,1.74,0,0,0,.32,0h0a10.93,10.93,0,0,0,3.81-.93,9.61,9.61,0,0,0,5.32-5.72,9.39,9.39,0,0,0,.49-3A9.82,9.82,0,0,0,146.59,372.06Zm-3.29,6.4a5.93,5.93,0,0,1-5.79,3.74,7.62,7.62,0,0,1-2.44-.41c-3.52-1.18-5.55-4.61-4.54-7.63a5.93,5.93,0,0,1,5.79-3.74,7.67,7.67,0,0,1,2.44.41C142.28,372,144.31,375.43,143.3,378.46Z"/><path class="cls-8" d="M142.28,378.12a4.86,4.86,0,0,1-4.77,3,6.28,6.28,0,0,1-2.09-.35c-3-1-4.7-3.8-3.87-6.26a4.84,4.84,0,0,1,4.77-3,6.82,6.82,0,0,1,2.09.34C141.38,372.84,143.11,375.66,142.28,378.12Z"/><path class="cls-9" d="M152.87,379.82a19.54,19.54,0,0,1-8.15,5.41,10.41,10.41,0,0,0,1.43-1.29,10.28,10.28,0,0,0,2.23-3.77,10.61,10.61,0,0,0-.85-8.63,12.88,12.88,0,0,0-14.17-6.12,27.44,27.44,0,0,1,5.82-2.77c4.58,1.22,9.37,2.45,14.34,3.65a10.1,10.1,0,0,1,2.13,5.12h0l.09.62C156.05,374.55,155.05,377.32,152.87,379.82Z"/><path class="cls-7" d="M256.75,391.9a11.49,11.49,0,0,0-6.45-5.31,12.1,12.1,0,0,0-3.81-.62,10.7,10.7,0,0,0-7.81,3.24.89.89,0,0,1-.13.14c-.29.35-.55.68-.79,1a9,9,0,0,0-1.14,2.28c-1.76,5.26,1.48,11.13,7.25,13.06a12.1,12.1,0,0,0,3.82.64H248a1.77,1.77,0,0,0,.33,0h0a10.93,10.93,0,0,0,3.81-.93,9.58,9.58,0,0,0,5.32-5.72,9.39,9.39,0,0,0,.49-3A9.83,9.83,0,0,0,256.75,391.9Zm-3.29,6.4a5.93,5.93,0,0,1-5.79,3.74,7.61,7.61,0,0,1-2.43-.41c-3.53-1.18-5.56-4.61-4.54-7.63a5.93,5.93,0,0,1,5.79-3.73,7.55,7.55,0,0,1,2.43.4C252.44,391.86,254.47,395.27,253.46,398.3Z"/><path class="cls-8" d="M252.44,398a4.86,4.86,0,0,1-4.77,3,6.37,6.37,0,0,1-2.09-.35c-3-1-4.69-3.8-3.87-6.26a4.86,4.86,0,0,1,4.78-3,6.87,6.87,0,0,1,2.09.34C251.54,392.68,253.27,395.5,252.44,398Z"/><path class="cls-9" d="M263,399.66a19.4,19.4,0,0,1-8.16,5.4,10.37,10.37,0,0,0,1.44-1.28,10.51,10.51,0,0,0,1.38-12.4,12.54,12.54,0,0,0-7.06-5.8,12.75,12.75,0,0,0-7.11-.33,27.63,27.63,0,0,1,3.9-2h0c5.23.61,10.25,1.14,15,1.57a10.44,10.44,0,0,1,3.4,6.58h0l.07.51C266.23,394.39,265.22,397.16,263,399.66Z"/><path class="cls-10" d="M161.49,368.17l-4.73,3.5a11.09,11.09,0,0,0-1.67-5Z"/><path class="cls-10" d="M274.55,385.65,267,392a.62.62,0,0,0,0-.13v-.05a11.47,11.47,0,0,0-2.87-6.84C267.75,385.23,271.25,385.47,274.55,385.65Z"/><path class="cls-11" d="M352.81,342.05a2.26,2.26,0,0,0-.26-.2l-.21-.15,0,0c-4.37-2.5-11.25-2.36-20.79-2.18a186.5,186.5,0,0,1-30.14-1.27c-3.86-.54-9.76-1.25-17.21-2.14-31.14-3.74-89.08-10.69-121.68-20.28-1.3-.39-2.53-.73-3.7-1.05a103.87,103.87,0,0,1-21.62-8.37c-13.21-6.59-26.72-.41-33.69,8.11a23.64,23.64,0,0,0-4.66,8.71v0h0a16.8,16.8,0,0,0-.46,7.22h0a15.66,15.66,0,0,0,3.17,7.24c4,5.18,11.94,11.87,18.65,14.08,43.65,14.3,126.77,28.89,164.72,28.9h0c34.28,0,65.87-24.63,68.64-35.09a4.71,4.71,0,0,0,.16-.78v0A3,3,0,0,0,352.81,342.05Zm-.31,3.27c-2.34,8.82-32.1,34.3-67.62,34.3-37.86,0-120.81-14.57-164.39-28.85-6.27-2.07-14.14-8.59-18.13-13.71-5.73-7.38-2.76-16.14,1.94-21.88C111,307,124,301,136.67,307.34a103.85,103.85,0,0,0,21.82,8.45c1.17.33,2.39.67,3.69,1,32.68,9.62,90.68,16.58,121.85,20.31,7.45.9,13.34,1.61,17.18,2.14a187.87,187.87,0,0,0,30.32,1.28c9-.17,16.09-.3,20.2,2l0,0a.41.41,0,0,0,.11.07,1.45,1.45,0,0,1,.28.21l0,.05,0,0A2.42,2.42,0,0,1,352.5,345.32Z"/><path class="cls-11" d="M354.79,349.83c-4.28,13.93-38,36.11-69.9,36.11h0c-2.7,0-5.62-.08-8.74-.22l-1.59-.07c-3.3-.18-6.8-.42-10.47-.72-.54-.06-1.1-.1-1.65-.14-4.74-.43-9.76-1-15-1.57h0l-2-.25h0c-25.59-3.11-55.76-8.41-82.52-14.49h0l-1.38-.31-6.4-1.5-1.57-.37c-5-1.2-9.76-2.43-14.34-3.65-.61-.16-1.21-.34-1.8-.49-6.21-1.69-12-3.41-17.22-5.13-6.71-2.2-14.62-8.89-18.65-14.06a19.65,19.65,0,0,1-2.71-19.73h0v0a.52.52,0,0,1,.06-.16l1,.42a19.41,19.41,0,0,0-1.52,7h0a19,19,0,0,0,4,11.84c4,5.11,11.86,11.63,18.13,13.7,43.58,14.28,126.53,28.85,164.39,28.85,31.47,0,64.7-21.71,68.88-35.34a6.54,6.54,0,0,0-.07-4.7v0a4.88,4.88,0,0,0-1.46-1.83l0,0,0-.05a1.45,1.45,0,0,0-.28-.21.41.41,0,0,1-.11-.07l0,0,.61-.89.21.15a2.26,2.26,0,0,1,.26.2C355.11,343.86,355.8,346.54,354.79,349.83Z"/><path class="cls-11" d="M147.53,371.54a12.88,12.88,0,0,0-14.17-6.12h0a11.36,11.36,0,0,0-5.64,3.23l-.52.62a4.5,4.5,0,0,0-.28.37,1.67,1.67,0,0,0-.12.16l-.06.11a9.65,9.65,0,0,0-1.29,2.54,10.66,10.66,0,0,0,.86,8.63,12.48,12.48,0,0,0,7.06,5.8,13,13,0,0,0,4.15.69h0c.22,0,.42,0,.64,0a11.72,11.72,0,0,0,6.55-2.32h0a10.41,10.41,0,0,0,1.43-1.29,10.28,10.28,0,0,0,2.23-3.77A10.61,10.61,0,0,0,147.53,371.54Zm-.16,8.28a9.61,9.61,0,0,1-5.32,5.72,10.93,10.93,0,0,1-3.81.93h0a1.74,1.74,0,0,1-.32,0h-.36a12,12,0,0,1-3.82-.63,11.45,11.45,0,0,1-6.46-5.3,9.61,9.61,0,0,1-.78-7.76,9,9,0,0,1,1.23-2.41s.07-.08.1-.13l.25-.33.44-.52a10.72,10.72,0,0,1,7.85-3.28,12,12,0,0,1,3.8.62,11.54,11.54,0,0,1,6.46,5.31,9.82,9.82,0,0,1,1.27,4.79A9.39,9.39,0,0,1,147.37,379.82Z"/><path class="cls-11" d="M138.76,370.83a7.67,7.67,0,0,0-2.44-.41,5.93,5.93,0,0,0-5.79,3.74c-1,3,1,6.45,4.54,7.63a7.62,7.62,0,0,0,2.44.41,5.93,5.93,0,0,0,5.79-3.74C144.31,375.43,142.28,372,138.76,370.83Zm3.52,7.29a4.86,4.86,0,0,1-4.77,3,6.28,6.28,0,0,1-2.09-.35c-3-1-4.7-3.8-3.87-6.26a4.84,4.84,0,0,1,4.77-3,6.82,6.82,0,0,1,2.09.34C141.38,372.84,143.11,375.66,142.28,378.12Z"/><path class="cls-11" d="M156.85,372.94a11.53,11.53,0,0,1-3.17,7.58,21.73,21.73,0,0,1-15.52,7c-.22,0-.42,0-.64,0v-1.08h.36a1.74,1.74,0,0,0,.32,0h0a21.21,21.21,0,0,0,6.47-1.24h0a19.54,19.54,0,0,0,8.15-5.41c2.18-2.5,3.18-5.27,2.84-7.78l-.09-.62h0a10.1,10.1,0,0,0-2.13-5.12l-.12-.16.84-.67a11.92,11.92,0,0,1,.85,1.2,11.09,11.09,0,0,1,1.67,5,2.28,2.28,0,0,1,0,.26v0A6.46,6.46,0,0,1,156.85,372.94Z"/><path class="cls-11" d="M139.39,362.57a.9.9,0,0,0-.21.08,27.44,27.44,0,0,0-5.82,2.77h0a22.87,22.87,0,0,0-4.87,4l-.44.52-.25.33c0,.05-.08.09-.1.13l-.09.13-.87-.61h0l.08-.1.12-.16a4.5,4.5,0,0,1,.28-.37l.52-.62a27.53,27.53,0,0,1,9.67-6.49c.56-.22,1.12-.43,1.68-.61Z"/><path class="cls-11" d="M257.7,391.38a12.54,12.54,0,0,0-7.06-5.8,12.75,12.75,0,0,0-7.11-.33,11.37,11.37,0,0,0-5.68,3.29,9.3,9.3,0,0,0-.66.77c-.06.09-.14.18-.19.27a.82.82,0,0,0-.11.17,9.84,9.84,0,0,0-1.28,2.55c-2,5.82,1.59,12.3,7.92,14.42a13,13,0,0,0,4.16.69c.21,0,.43,0,.64,0a12.34,12.34,0,0,0,4.33-1,11.47,11.47,0,0,0,2.21-1.3h0a10.37,10.37,0,0,0,1.44-1.28,10.51,10.51,0,0,0,1.38-12.4Zm-.16,8.28a9.58,9.58,0,0,1-5.32,5.72,10.93,10.93,0,0,1-3.81.93h0a1.77,1.77,0,0,1-.33,0h-.34a12.1,12.1,0,0,1-3.82-.64c-5.77-1.93-9-7.8-7.25-13.06a9,9,0,0,1,1.14-2.28c.24-.33.5-.66.79-1a.89.89,0,0,0,.13-.14,10.7,10.7,0,0,1,7.81-3.24,12.1,12.1,0,0,1,3.81.62,11.49,11.49,0,0,1,6.45,5.31,9.83,9.83,0,0,1,1.28,4.79A9.39,9.39,0,0,1,257.54,399.66Z"/><path class="cls-11" d="M248.92,390.67a7.55,7.55,0,0,0-2.43-.4A5.93,5.93,0,0,0,240.7,394c-1,3,1,6.45,4.54,7.63a7.61,7.61,0,0,0,2.43.41,5.93,5.93,0,0,0,5.79-3.74C254.47,395.27,252.44,391.86,248.92,390.67Zm3.52,7.29a4.86,4.86,0,0,1-4.77,3,6.37,6.37,0,0,1-2.09-.35c-3-1-4.69-3.8-3.87-6.26a4.86,4.86,0,0,1,4.78-3,6.87,6.87,0,0,1,2.09.34C251.54,392.68,253.27,395.5,252.44,398Z"/><path class="cls-11" d="M267,393.31a11.77,11.77,0,0,1-3.16,7.05,21.74,21.74,0,0,1-15.51,7c-.21,0-.43,0-.64,0v-1.07H248a1.77,1.77,0,0,0,.33,0h0a20.85,20.85,0,0,0,6.46-1.24h0a19.4,19.4,0,0,0,8.16-5.4c2.18-2.5,3.19-5.27,2.83-7.78l-.07-.51h0a10.44,10.44,0,0,0-3.4-6.58.54.54,0,0,0-.15-.15l.72-.81a10.19,10.19,0,0,1,1.08,1.1,11.47,11.47,0,0,1,2.87,6.84v.05a.62.62,0,0,1,0,.13A8.8,8.8,0,0,1,267,393.31Z"/><path class="cls-11" d="M247.62,383.13a1.51,1.51,0,0,0-.18.09h0a27.63,27.63,0,0,0-3.9,2,23,23,0,0,0-4.85,4,.89.89,0,0,1-.13.14c-.29.35-.55.68-.79,1l-.87-.61h0a.83.83,0,0,1,.12-.16c.05-.09.13-.18.19-.27a9.3,9.3,0,0,1,.66-.77A25.6,25.6,0,0,1,245.4,383h0c.59-.3,1.19-.57,1.79-.83Z"/><polygon class="cls-11" points="163.09 368.33 162.88 368.48 162.87 368.48 156.85 372.94 156.63 373.1 155.99 372.24 156.76 371.67 161.49 368.17 162.44 367.46 163.09 368.33"/><polygon class="cls-11" points="276.3 385.58 276.14 385.72 267 393.31 266.82 393.46 266.13 392.64 266.96 391.95 274.55 385.65 275.62 384.75 276.3 385.58"/><path class="cls-9" d="M275.81,250.11c0,.43,3.59,43.44,3.89,70.17-2.9,1.27-25.33,10.61-52.11,9.06l-.8-5c-3.62-25.05-6.3-53.25-6.34-53.53l0-.55-.54.06c-1,.13-2.06.22-3.1.25A46,46,0,0,1,201.2,269a47,47,0,0,0,15.59,2.68c.89,0,1.78-.1,2.65-.2.39,4,2.91,29.52,6.21,52.54-3.65.69-26.61,4.53-44.76-5.14.29-4.3,3.06-47,2.54-57v-.22l-.15-.15a72.82,72.82,0,0,1-22.46-44.51c17,5.92,37.09,8.84,57.37,8.84,25.13,0,50.57-4.47,70.79-13.23-2.26,11.39-6.14,22.63-13.11,37.3l-.06.13Z"/><path class="cls-5" d="M289,212.54q-2.25,1-4.58,1.87c-2.42,12.09-13.2,34.08-13.46,35.89-.23,1.66,3.18,56.1,3.62,72,2.67-.95,4.46-1.7,5.15-2-.3-26.73-3.85-69.74-3.89-70.17V250l.06-.13C282.83,235.17,286.71,223.93,289,212.54Z"/><path class="cls-7" d="M292,184.32a192.13,192.13,0,0,1-2.82,26.94c-36.47,16.05-90.4,17.93-128.55,4.49-3.19-28,7.83-55.72,14.22-70.69A18.49,18.49,0,0,0,183,160.58c5.07,3.67,11.75,5.51,19,5.51A52.53,52.53,0,0,0,225.84,160c13.46-7,23.51-20.68,32.37-32.74,8.16-11.1,15.21-20.7,22.83-22.36.66,2.4,1.29,4.91,1.92,7.53-.21,0-.43.11-.64.16-7.86,2.11-22.07,19.93-20.05,45.12,1.39,17.29,12,19.79,15.23,20.14a15.86,15.86,0,0,0,1.67.09,14.27,14.27,0,0,0,12.7-7.43A134.33,134.33,0,0,1,292,184.32Z"/><path class="cls-5" d="M292,184.32a134.33,134.33,0,0,0-.17-13.83,13.59,13.59,0,0,1-3.27,4c-.13,11.25-2.5,28.71-4,38.65,1.56-.62,3.1-1.25,4.61-1.91A192.13,192.13,0,0,0,292,184.32Z"/><path class="cls-5" d="M278.88,114.24a12,12,0,0,1,3.44-1.67c.21,0,.43-.12.64-.16-.63-2.62-1.26-5.13-1.92-7.53a14.19,14.19,0,0,0-4,1.58C277.75,109.18,278.36,111.81,278.88,114.24Z"/><g class="cls-12"><path class="cls-13" d="M196.8,158.45c-9.66,35.72-6.88,72.78-6.88,72.78"/><path class="cls-13" d="M217.45,153.89c-6.44,27.39-4.83,81.1-4.83,81.1"/><path class="cls-13" d="M180.66,148.25c-9.63,31.15-10.49,79.49-10.49,79.49"/><path class="cls-13" d="M237,143.15c-3.49,35.45-1.88,91.84-1.88,91.84"/><path class="cls-13" d="M262.08,113.87c-13.71,48.88-5,121.12-5,121.12"/><path class="cls-13" d="M274.69,161.07c2,31.09-1.61,70.16-1.61,70.16"/></g><path class="cls-14" d="M301.47,353.93a13.32,13.32,0,0,1-5.85-.59c-.58-2.52-1.23-5.06-2.06-7.54s-1.79-5.3-3.95-7.15c-2.37-1.69-5.35-.86-8-1.14a27.29,27.29,0,0,1-7.85-1.74,27.45,27.45,0,0,0,7.83,2c2.54.35,5.57-.34,7.71,1.3,1.91,1.75,2.69,4.54,3.5,7a69.81,69.81,0,0,1,1.66,6.89h0l.2.94a23,23,0,0,1,.51,4.62A31.46,31.46,0,0,1,284.44,356a25,25,0,0,0-2.83-8.52,15.85,15.85,0,0,0-11-7.86c-3.09-.67-6.07.72-9.12.88a11.38,11.38,0,0,1-4.53-.43,11.46,11.46,0,0,0,4.54.57c3-.07,6.06-1.36,9-.62,7.54,1.42,11.87,8.24,12.83,15.42l-.09,0,.21,1v0a29.43,29.43,0,0,1,.49,5.85c-17.27-1.62-47.51-12-48.38-15.82a36.33,36.33,0,0,1-.67-9.46c0-2,.07-4.06-.09-6.42a126.54,126.54,0,0,0,41.62-7.83c.05,9.72.67,10.16.9,10.33s1.39.39,5.45.86,10.1,1.19,11.19,1.9C296.4,337.43,301.55,349.2,301.47,353.93Z"/><path class="cls-15" d="M283.43,356.43v0l-.21-1,.09,0c-1-7.18-5.29-14-12.83-15.42-3-.74-6,.55-9,.62-.22,0-.44,0-.66,0h0s-8.86,1.63-10.87,13.29h0c10.39,3.74,24.26,7.46,34,8.37A29.43,29.43,0,0,0,283.43,356.43Z"/><path class="cls-15" d="M292.79,346.05c-.81-2.43-1.59-5.22-3.5-7-2.14-1.64-5.17-.95-7.71-1.3a25.37,25.37,0,0,1-5.47-1.16h0s-8.31-1.23-15.26,3.86l.61,0c3.05-.16,6-1.55,9.12-.88a15.85,15.85,0,0,1,11,7.86,25,25,0,0,1,2.83,8.52,31.46,31.46,0,0,0,10.71,2.54,23,23,0,0,0-.51-4.62l-.2-.94h0A69.81,69.81,0,0,0,292.79,346.05Z"/><path class="cls-15" d="M301.47,353.93a13.32,13.32,0,0,1-5.85-.59c-.58-2.52-1.23-5.06-2.06-7.54s-1.79-5.3-3.95-7.15c-2.37-1.69-5.35-.86-8-1.14a25.86,25.86,0,0,1-5.44-1c1.57-2.25,6.19-2.65,6.19-2.65l.4,0c4,.48,10.1,1.19,11.19,1.9C296.4,337.43,301.55,349.2,301.47,353.93Z"/><path class="cls-15" d="M436.16,19.47a25.58,25.58,0,0,1-3,3.78C429.68,27.13,424,33.58,420.39,42A10.23,10.23,0,0,1,414,34.55C422.8,26.27,434,19.65,436.16,19.47Z"/><path class="cls-15" d="M435.59,5.27a31.77,31.77,0,0,1-2.93,3.11c-4.57,4.56-13,13-19.55,25.47a8.83,8.83,0,0,1-9.26-5.41C416.84,12.86,431.94,4.25,435.59,5.27Z"/><path class="cls-15" d="M417.29,6.58a93.76,93.76,0,0,0-14.37,21.17c-4.26-.62-8.36-4.11-9.53-5.2C403.06,9.37,416.66.62,420.2,1.09c.44.06.51.25.55.33C421.06,2.22,419.47,4,417.29,6.58Z"/><path class="cls-15" d="M391.12,8.53A28,28,0,0,1,389.68,13c-1.74,4.68-4.63,12.47-5.57,21.44-4,1.87-8.75,1-10.25.72C377.87,16.77,388.12,8.75,391.12,8.53Z"/><path class="cls-14" d="M420,43c-4.21,9.88-12.5,18.85-19.18,26.08-2.55,2.76-4.75,5.13-6.35,7.18s-5.59,8-10.54,15.32c-12.27,18.26-30.81,45.84-37.66,50.74-5,3.58-39.63,14.3-56.13,17.37a43.82,43.82,0,0,1-5.77,1.32,45.86,45.86,0,0,0,6-.25l.8-.16c.24,2.58.45,5.06.61,7.44a13.11,13.11,0,0,1-14.1,8.69c-8-.88-13.38-8-14.26-19.15-2-24.62,11.68-42,19.25-44,14-3.74,26.87-5.48,37.21-6.88,9.15-1.25,15.77-2.14,19-3.87,6.81-3.62,34.34-38.9,35.51-40.4a.53.53,0,0,0,.11-.42c-1.82-10.74-1-23.07-.78-25.83a21.87,21.87,0,0,0,4.47.48,15.06,15.06,0,0,0,6.63-1.4l.08,0h0l.07,0c.5-.36,1.11-1.35,2.45-3.55s3-5,5.37-8.24c1.38,1.26,5.58,4.76,10.1,5.39A10.07,10.07,0,0,0,413,34.94,11.34,11.34,0,0,0,420,43Z"/><path class="cls-15" d="M391.12,64.59c-10.74-3.41-8.84-23.06-5.34-21.85s5.27,3.82,7.15,3.82,6.38-4.22,11.88.44C408.33,50,400,67.41,391.12,64.59Z"/><path class="cls-15" d="M76.41,58.12a22,22,0,0,1-6.75,4.23,6.86,6.86,0,0,1-5.79-.71c-4.68-3.86-11.74-7.47-17.4-10.37-3.58-1.83-7.61-3.88-8.14-4.72C41,45.37,64.49,47.57,76.41,58.12Z"/><path class="cls-14" d="M176.05,139.64l-1,2.31a227.19,227.19,0,0,0-11.42,31.44c-10.42-.72-29-2.36-39-5.4s-30.51-35.21-42.76-54.44C75.25,103.21,72,98.21,70.9,97.64,67.6,96,40,86.58,35,84.88a15.33,15.33,0,0,0,1.56-8.94,14.47,14.47,0,0,0,1.33-10.59c.67-.92,3-4.44,2.56-8.07,5.27,1,17.93,2.53,19.4,2.71,1.19.8,2.31,1.62,3.32,2.44a28.62,28.62,0,0,1,3.6,7.44,30.48,30.48,0,0,0-2-6.62,8.16,8.16,0,0,0,2.86.55A7,7,0,0,0,70,63.35a23,23,0,0,0,7.23-4.55C82.11,62.27,88.16,77.24,90.48,83l.71,1.75c1.72,4.12,41.63,48.81,44.95,50.33,1.1.5,5.44.89,13,1.51C157.8,137.26,168.53,138.14,176.05,139.64Z"/><path class="cls-15" d="M75,83.18C76.51,72,63.48,65.91,63.07,69.58s.8,5.4,0,7.1-12.85-4.4-13.77,2.75C48.19,88,73.74,92.4,75,83.18Z"/><path class="cls-15" d="M37.12,64.52c-4.2-2.63-11.49-4.84-17.39-6.64-3.76-1.14-8-2.42-8.77-3.14,1.86-1.1,17.17.15,28.33,2.33C39.88,60.17,37.89,63.43,37.12,64.52Z"/><path class="cls-15" d="M35.73,75.14c-5.79-2.56-14-5.38-21.35-7.88C8.77,65.35,3,63.37,1.41,62.49c3.4-.64,22.3.71,35.42,3.21A13.62,13.62,0,0,1,35.73,75.14Z"/><path class="cls-15" d="M33.92,84.52l-.55-.18c-18.53-6-22-8.58-22.44-9.56,0,0,0-.07,0-.07,1.1-1,13.27.06,24.59,1.61A14.27,14.27,0,0,1,33.92,84.52Z"/><path class="cls-14" d="M273.74,83.82C259.36,54,243.07,32.75,225.32,20.69a3.61,3.61,0,0,1-.57.12l-.09-.53.06.54A51.2,51.2,0,0,1,205,17.87a50.9,50.9,0,0,0,19.62,1.88A13,13,0,0,0,229,18.13c-4.82,0-10.46-2.73-16.39-5.57-9.74-4.65-19.8-9.46-27.74-3.51l-.26.19-.3-.14c-8.8-4.34-17.5,1.21-25.91,6.59C154.49,18.2,150.75,20.6,147,22a33.33,33.33,0,0,0,7.28.22,8.58,8.58,0,0,0,.87-.1c.36,0,.71-.09,1.05-.16h.09c.92-.31,1.85-.63,2.76-1s1.68-.62,2.51-.95l.84-.33.85-.36c.56-.24,1.11-.48,1.67-.74.75-.34,1.48-.71,2.21-1.1A72.3,72.3,0,0,1,156.7,23l0,0c-.64.44-10.22,7.07-8.72,15.58l-.52.09.52.08c-1.2,8-4,21.44-5.51,28.68l-.31,1.53c-3.12,15,3.56,37.65,22,50.06,5.43,3.63,14.11,16,14.47,16.49l.16.23-.09.26c-.57,1.53-1.41,3.46-2.46,5.91h0a17.59,17.59,0,0,0,7.35,17.82c10.09,7.33,26.87,7,41.74-.69,13.24-6.89,23.2-20.45,32-32.43,8.25-11.23,15.42-21,23.4-22.74A123.83,123.83,0,0,0,273.74,83.82ZM161.8,39.07a14.83,14.83,0,0,1,2.07,5.31c-7.75-2.57-17.08,4.77-17.08,4.77C153.1,39.76,161.8,39.07,161.8,39.07ZM147.4,68.73c-1.66-6.46,2.57-14.82,9.36-16.44,7.83-.82,10.25,10.44,8.62,16.22a7.61,7.61,0,0,1-.65,3.09C160.48,77.49,147.6,77.86,147.4,68.73ZM159,87.23c-.71-2.6,5.83-12.56,7.74-15.13,1.6-2.17,4.72-2.78,7.09-2.42,2,.3,3.41,1.23,3.87,2.56,1,2.92,1.46,13,.43,15.2s-9.08,7.45-12,7.45S159.6,89.43,159,87.23Zm32.35,1.87a15.87,15.87,0,0,1-2.91,3.16c1.2,8.47-2.79,12.83-6.39,15a15.82,15.82,0,0,1-7.2,2.28,1.91,1.91,0,0,1-1-.18c-.46-.34-.8-1.2-1.53-3.13a60.67,60.67,0,0,0-3.44-7.66,26,26,0,0,1-5.29-1.8,24.68,24.68,0,0,0,5.68.79h0c8,.49,17.53-3.63,21.27-9.16a13.14,13.14,0,0,0-1.81-1.26c2.38-.43,4.58,1.86,4.8,4.12C192.77,90.5,192.08,89.77,191.36,89.1Zm3.93-13.73c-4.22.74-9.51.76-12.63-2.68-1-1.17-1.13-2.73-1.36-4.18-2.7-10.07,3.3-20.55,14.77-17.3,5.48,1.36,9.78,6.75,9.68,12.28C207.37,70.51,201.31,74.22,195.29,75.37Zm-9.43-31a12.25,12.25,0,0,1,3.23-5.3s12.28-2.89,23.39,10.07C212.48,49.15,198.24,40.94,185.86,44.38Zm36.11-9-.8-.64c-3.7-3.05-7.48-6-11.47-8.73a35.7,35.7,0,0,1,6.38,3.51,61.52,61.52,0,0,1,4.93,3.7c-.14-3.1-1.77-6-3.52-8.55C220.38,27.45,222.56,31.3,222,35.42Z"/><path class="cls-14" d="M219.62,341.33c-1.51,1.21-7.24,1.26-12.32,1.3a75.32,75.32,0,0,0-10,.5c-5.56.95-34.11,5.59-54.93,4.43a13.18,13.18,0,0,1,3.27-5.41l0,0,1.23-1.07h-.06c8.63-7.46,20.83-9.41,31.94-9.67-11.75-.08-24.66,1.7-33.71,9.84-.89.07-5.12.43-9.26.44a34.65,34.65,0,0,1,3.73-4.76l0-.05,1.72-1.36c9.07-7,21-9.47,32.27-8.89a52.87,52.87,0,0,0-9.16-.05c-9.1.69-18.24,3.61-25.4,9.39a27.58,27.58,0,0,1-4.49-.56c2.83-2.58,13.63-11.65,28.24-13.81,6.22-.92,13.51,1.52,16.25,2.45a5.12,5.12,0,0,0,1.32.37c.37,0,1,0,1.52-3.9,14.17,6.93,30.75,6.23,39.13,5.26a34.09,34.09,0,0,0,.4,8C221.83,337.23,222.12,339.31,219.62,341.33Z"/><path class="cls-15" d="M139,336c7.16-5.78,16.3-8.7,25.4-9.39a56.7,56.7,0,0,1,7.6-.07h-.06s-1.07-4.59-4.68-5.05a21.87,21.87,0,0,0-4.51.15c-14.61,2.16-25.41,11.23-28.24,13.81A27.58,27.58,0,0,0,139,336Z"/><path class="cls-15" d="M176.26,331.48c-10.41.49-21.48,2.67-29.47,9.58h.06l-1.23,1.07,0,0a13.18,13.18,0,0,0-3.27,5.41c12.73.71,28.33-.75,39.82-2.2C182.66,340.38,181.13,332.55,176.26,331.48Z"/><path class="cls-15" d="M141.25,335.5l-1.72,1.36,0,.05a34.65,34.65,0,0,0-3.73,4.76c4.14,0,8.37-.37,9.26-.44,8.34-7.5,20-9.6,30.93-9.82h0s-.64-4-3.71-4.85C161.34,326.23,150,328.81,141.25,335.5Z"/><path class="cls-15" d="M230.7,79.49c-2.08,13.27-20.87,37.27-34.34,44.1s-21.21,1.43-32.49-4.16c-19-12.74-25.34-35.85-22.28-50.61,1.37-6.6,4.53-21.64,5.83-30.19,2.29-5.94,7.47-10.22,13.72-13,6.84-3.08,7.27,5.45,14.29,5.57,4.31.07,16.06-8.89,19.88-7.32C218.88,33.55,232.51,68.05,230.7,79.49Z"/><path class="cls-16" d="M230.7,79.49A35.93,35.93,0,0,1,227,89.82s-12.59-10.16-38.8-14.77c6.54,1.06,15.79-1.89,17.25-7a11.69,11.69,0,0,0,.33-4.52c-.69-5.74-5.31-11.7-13.72-11.78,18.45-.91,36.62,15,37.17,15.48h0C230.63,72.25,231.15,76.6,230.7,79.49Z"/><path class="cls-16" d="M158.83,74.82c-8.42,2.35-17,9.46-17.25,9.67a42.43,42.43,0,0,1,0-15.67c.4-1.91.95-4.52,1.55-7.48,0,0,6.37-6.42,13.37-7.93-5.3,1.42-10,9-9.11,15.32a9.91,9.91,0,0,0,.93,3C150.23,75.43,154.9,75.88,158.83,74.82Z"/><path class="cls-17" d="M187.18,98.82c-6-2.67-11.78,1.42-14.72,4.78-.61-1.47-1.34-3.16-2.29-4.95h.38A29.6,29.6,0,0,0,187.47,93,16.38,16.38,0,0,1,187.18,98.82Z"/><path class="cls-18" d="M186.87,99.86a11.55,11.55,0,0,1-3.49,5.12,14.81,14.81,0,0,1-8.87,3.5,12.24,12.24,0,0,1-1.18-2.65l-.42-1.1C175.53,101.53,181.17,97.21,186.87,99.86Z"/><path class="cls-16" d="M176.7,72.59c-.32-.92-1.45-1.61-3-1.85a8.12,8.12,0,0,0-1.13-.08,6.17,6.17,0,0,0-4.94,2.07c-3.14,4.24-7.6,11.84-7.6,14a1,1,0,0,0,0,.26c.52,2,3.74,6.88,6.09,6.88,2.56,0,10.17-5,11-6.84S177.7,75.47,176.7,72.59ZM161.19,86.51c4.09-1.7,9.24-1.64,13,.84A45,45,0,0,0,161.19,86.51Z"/><path class="cls-5" d="M173.68,70.74a8.12,8.12,0,0,0-1.13-.08A6.76,6.76,0,0,0,168.31,72s5.09-.84,6.58,1.1,1,10.88.77,12.53c-.14,1.16-2.37,5.24-8.82,8.07,3-.69,9.53-5,10.32-6.74s.54-11.51-.46-14.39C176.38,71.67,175.25,71,173.68,70.74Z"/><path class="cls-5" d="M181.83,70.75c-2-6-.52-19.16,10.19-19S207.29,61.45,205.43,68C203.29,75.56,184.38,78.4,181.83,70.75Z"/><path class="cls-5" d="M165,70.52c2.13-7.85-2.29-18.77-8.46-17.11S145,65.05,148.33,71.69,163.87,74.58,165,70.52Z"/><path class="cls-4" d="M202.8,63.9a6.44,6.44,0,1,0-6.44,6.44A6.44,6.44,0,0,0,202.8,63.9Z"/><path class="cls-11" d="M199.66,63.9a3.31,3.31,0,1,0-3.3,3.3A3.31,3.31,0,0,0,199.66,63.9Z"/><circle class="cls-5" cx="198.23" cy="61.18" r="1.43"/><path class="cls-4" d="M165.29,65.1a5.85,5.85,0,1,0-5.85,5.84A5.85,5.85,0,0,0,165.29,65.1Z"/><path class="cls-11" d="M162.44,65.1a3,3,0,1,0-3,3A3,3,0,0,0,162.44,65.1Z"/><path class="cls-5" d="M162.44,62.63a1.3,1.3,0,1,0-1.3,1.3A1.3,1.3,0,0,0,162.44,62.63Z"/><path class="cls-11" d="M177.71,72.24c-.46-1.33-1.87-2.26-3.87-2.56-2.37-.36-5.49.25-7.09,2.42-1.91,2.57-8.45,12.53-7.74,15.13.59,2.2,4.08,7.66,7.12,7.66s11-5.28,12-7.45S178.74,75.16,177.71,72.24ZM177.16,87c-.86,1.85-8.47,6.84-11,6.84-2.35,0-5.57-4.93-6.09-6.88a1,1,0,0,1,0-.26c0-2.11,4.46-9.71,7.6-14a6.17,6.17,0,0,1,4.94-2.07,8.12,8.12,0,0,1,1.13.08c1.57.24,2.7.93,3,1.85C177.7,75.47,178,85.15,177.16,87Z"/><path class="cls-11" d="M191.51,88.9a1.3,1.3,0,0,1-.15.2,15.87,15.87,0,0,1-2.91,3.16c-.31.26-.63.53-1,.77a29.6,29.6,0,0,1-16.92,5.63h-.38c-.32,0-.65,0-1,0l0-.54h0l0-.53h0c8,.49,17.53-3.63,21.27-9.16l.05-.07Z"/><path class="cls-11" d="M193.56,91.24c-.79-.74-1.48-1.47-2.2-2.14-.26-.25-.51-.48-.79-.72a13.14,13.14,0,0,0-1.81-1.26C191.14,86.69,193.34,89,193.56,91.24Z"/><path class="cls-11" d="M174.19,87.35a45,45,0,0,0-13-.84C165.28,84.81,170.43,84.87,174.19,87.35Z"/><path class="cls-11" d="M195.29,75.37c-4.22.74-9.51.76-12.63-2.68-1-1.17-1.13-2.73-1.36-4.18.46,1.34.68,2.83,1.76,3.83,3.14,3,8,2.66,12,2,5.89-1.19,11.25-4,10.66-10.83C207.37,70.51,201.31,74.22,195.29,75.37Z"/><path class="cls-11" d="M205.75,63.49a13.72,13.72,0,0,0-10.19-10.31c-10.27-2.62-14.49,6.4-14.26,15.33-2.7-10.07,3.3-20.55,14.77-17.3C201.55,52.57,205.85,58,205.75,63.49Z"/><path class="cls-11" d="M165.38,68.51a7.61,7.61,0,0,1-.65,3.09c-4.25,5.89-17.13,6.26-17.33-2.87.85,4.33,4.68,6.53,8.86,6,2.86-.32,6.07-1.21,8-3.42A8.8,8.8,0,0,0,165.38,68.51Z"/><path class="cls-11" d="M165.38,68.51a14.05,14.05,0,0,0-.09-1.64,19.65,19.65,0,0,0-.29-2.11c-.1-.54-.21-1.11-.35-1.67s-.36-1.33-.58-2c-1.27-3.75-3.52-7.06-6.94-6.71-5.79,1.51-9.63,8.49-9.73,14.33-1.66-6.46,2.57-14.82,9.36-16.44C164.59,51.47,167,62.73,165.38,68.51Z"/><path class="cls-11" d="M196.36,70.61a6.71,6.71,0,1,1,6.71-6.71A6.72,6.72,0,0,1,196.36,70.61Zm0-12.89a6.18,6.18,0,1,0,6.17,6.18A6.18,6.18,0,0,0,196.36,57.72Z"/><path class="cls-11" d="M199.66,63.9a3.31,3.31,0,1,0-3.3,3.3A3.31,3.31,0,0,0,199.66,63.9Z"/><circle class="cls-5" cx="198.23" cy="61.18" r="1.43"/><path class="cls-11" d="M159.44,71.21a6.11,6.11,0,1,1,6.12-6.11A6.12,6.12,0,0,1,159.44,71.21Zm0-11.69A5.58,5.58,0,1,0,165,65.1,5.58,5.58,0,0,0,159.44,59.52Z"/><path class="cls-11" d="M162.44,65.1a3,3,0,1,0-3,3A3,3,0,0,0,162.44,65.1Z"/><path class="cls-5" d="M162.44,62.63a1.3,1.3,0,1,0-1.3,1.3A1.3,1.3,0,0,0,162.44,62.63Z"/><path class="cls-11" d="M212.48,49.15s-14.24-8.21-26.62-4.77a12.25,12.25,0,0,1,3.23-5.3S201.37,36.19,212.48,49.15Z"/><path class="cls-11" d="M163.87,44.38c-7.75-2.57-17.08,4.77-17.08,4.77,6.31-9.39,15-10.08,15-10.08A14.83,14.83,0,0,1,163.87,44.38Z"/><path class="cls-11" d="M182.06,107.24a15.82,15.82,0,0,1-7.2,2.28,1.91,1.91,0,0,1-1-.18c-.46-.34-.8-1.2-1.53-3.13a60.67,60.67,0,0,0-3.44-7.66l-.12-.21.47-.26h0l.47-.26c.16.28.31.56.46.84,1,1.79,1.68,3.48,2.29,4.95.16.39.31.77.45,1.13l.42,1.1a12.24,12.24,0,0,0,1.18,2.65,14.81,14.81,0,0,0,8.87-3.5,11.55,11.55,0,0,0,3.49-5.12,8.38,8.38,0,0,0,.31-1,16.38,16.38,0,0,0,.29-5.79l-.12-.9,1.06-.16c0,.1,0,.19,0,.29C189.65,100.73,185.66,105.09,182.06,107.24Z"/><path class="cls-11" d="M187.76,99.1l-.49,1-.4-.2c-5.7-2.65-11.34,1.67-14,4.87l-.2.24-.84-.67c.18-.22.37-.46.59-.7,2.94-3.36,8.74-7.45,14.72-4.78Z"/><path class="cls-11" d="M284.12,112.67l-1,.25c0-.18-.07-.34-.12-.51-.63-2.62-1.26-5.13-1.92-7.53-.1-.34-.18-.69-.29-1a123.83,123.83,0,0,0-7-20C259.36,54,243.07,32.75,225.32,20.69a.94.94,0,0,1-.18-.12l.6-.89.95.66c17.61,12.24,33.76,33.43,48,63,3.12,6.47,6.32,16.43,9.29,28.8C284,112.32,284.08,112.49,284.12,112.67Z"/><path class="cls-11" d="M293.12,184.38c-1.22,24.39-3.85,39.7-16.23,65.78.23,2.8,3.61,44.5,3.88,70.46V321l-.32.15s-1.1.49-3,1.22l-1.07.41a126.54,126.54,0,0,1-41.62,7.83h-1.16c-2.13,0-4.33-.06-6.54-.2l-.43,0-.84-5.34c-.68.13-2,.36-3.79.6l-1.09.13c-8.38,1-25,1.67-39.13-5.26l-1-.51-.7-.38-.3-.16,0-.34c0-.46,3.08-46.16,2.58-57-27.63-26.6-26-61-19-87.64.08-.36.18-.71.28-1.05A227.19,227.19,0,0,1,175.06,142l1-2.31c.14-.35.29-.68.43-1,.44-1,.82-2,1.12-2.77-1.23-1.73-9.16-12.73-14-16-18.88-12.67-25.68-35.82-22.5-51.17l.31-1.52c1.5-7.21,4.27-20.6,5.49-28.54h0s0,0,0-.08l.5.08h0l.52.08c-1.2,8-4,21.44-5.51,28.68l-.31,1.53c-3.12,15,3.56,37.65,22,50.06,5.43,3.63,14.11,16,14.47,16.49l.16.23-.09.26c-.57,1.53-1.41,3.46-2.46,5.91h0c-.07.16-.13.32-.21.48-.36.84-.75,1.73-1.15,2.68h0c-6.39,15-17.41,42.69-14.22,70.69,0,.39.09.79.14,1.18a72.82,72.82,0,0,0,22.46,44.51l.15.15v.22c.52,10.05-2.25,52.72-2.54,57C199,328.5,222,324.66,225.65,324l.5-.1.54-.12.09.57h0l.8,5c26.78,1.55,49.21-7.79,52.11-9.06-.3-26.73-3.85-69.74-3.89-70.17V250l.06-.13c7-14.67,10.85-25.91,13.11-37.3h0c.08-.42.17-.85.25-1.27A192.13,192.13,0,0,0,292,184.32a134.33,134.33,0,0,0-.17-13.83c0-.8-.1-1.61-.16-2.42-.16-2.38-.37-4.86-.61-7.44,0-.19-.05-.39-.07-.59l1.08-.1c0,.16,0,.32.05.48A173.29,173.29,0,0,1,293.12,184.38Z"/><path class="cls-11" d="M289.89,212.13l-.92.4h0c-20.22,8.76-45.66,13.23-70.79,13.23-20.28,0-40.35-2.92-57.37-8.84l-.92-.32.35-1c.14.06.28.1.43.15,38.15,13.44,92.08,11.56,128.55-4.49l.24-.1Z"/><path class="cls-11" d="M216.79,271.63A47,47,0,0,1,201.2,269a46,46,0,0,0,15.56,1.6Z"/><path class="cls-11" d="M226.79,324.32h0l-1.05.15c0-.16,0-.34-.08-.5-3.3-23-5.82-48.52-6.21-52.54-.87.1-1.76.16-2.65.2l0-1.08c1,0,2.08-.12,3.1-.25l.54-.06,0,.55C220.49,271.07,223.17,299.27,226.79,324.32Z"/><path class="cls-11" d="M281.51,104.78l-.47.1c-7.62,1.66-14.67,11.26-22.83,22.36C249.35,139.3,239.3,153,225.84,160A52.53,52.53,0,0,1,202,166.09c-7.28,0-14-1.84-19-5.51a18.49,18.49,0,0,1-8.07-15.52h0a22,22,0,0,1,.31-3.4l1.06.19a.06.06,0,0,1,0,0h0a17.59,17.59,0,0,0,7.35,17.82c10.09,7.33,26.87,7,41.74-.69,13.24-6.89,23.2-20.45,32-32.43,8.25-11.23,15.42-21,23.4-22.74l.58-.12Z"/><path class="cls-11" d="M292.77,168.27a13.57,13.57,0,0,1-.9,2.22,14.27,14.27,0,0,1-12.7,7.43,15.86,15.86,0,0,1-1.67-.09c-3.23-.35-13.84-2.85-15.23-20.14-2-25.19,12.19-43,20.05-45.12l.28,1.05c-7.57,2-21.23,19.37-19.25,44,.88,11.1,6.22,18.27,14.26,19.15a13.11,13.11,0,0,0,14.1-8.69.49.49,0,0,0,0-.11Z"/><path class="cls-11" d="M290.3,160.79a45.86,45.86,0,0,1-6,.25,43.82,43.82,0,0,0,5.77-1.32Z"/><path class="cls-11" d="M437.29,19.26c0,.89-1,2.08-3.36,4.71-3.46,3.9-9.24,10.42-12.75,18.94C417,53.18,408.06,62.8,401.56,69.84c-2.52,2.74-4.72,5.1-6.28,7.1s-5.56,7.92-10.5,15.28c-12.31,18.31-30.92,46-37.93,51-5.25,3.76-38.55,13.89-54.69,17.2l-1.06.21-.8.16-.2-1.07c16.5-3.07,51.11-13.79,56.13-17.37,6.85-4.9,25.39-32.48,37.66-50.74,4.95-7.36,8.86-13.19,10.54-15.32s3.8-4.42,6.35-7.18c6.68-7.23,15-16.2,19.18-26.08.08-.18.15-.36.23-.53s.13-.31.2-.46c3.58-8.46,9.29-14.91,12.74-18.79a25.58,25.58,0,0,0,3-3.78c-2.13.18-13.36,6.8-22.13,15.08l-.21.2a.55.55,0,0,1-.7,0,.54.54,0,0,1-.15-.68,1.65,1.65,0,0,1,.14-.26c6.51-12.47,15-20.91,19.55-25.47a31.77,31.77,0,0,0,2.93-3.11c-3.65-1-18.75,7.59-31.74,23.17-.08.07-.14.16-.21.23a.53.53,0,0,1-.89-.56c.06-.12.12-.24.17-.36A93.76,93.76,0,0,1,417.29,6.58c2.18-2.54,3.77-4.36,3.46-5.16,0-.08-.11-.27-.55-.33-3.54-.47-17.14,8.28-26.81,21.46l-.28.39-.36.49c-2.33,3.25-4.08,6.13-5.37,8.24s-1.95,3.19-2.45,3.55l-.07,0h0l-.08,0a.54.54,0,0,1-.43,0,.55.55,0,0,1-.27-.52l0-.31c.94-9,3.83-16.76,5.57-21.44a28,28,0,0,0,1.44-4.45c-3,.22-13.25,8.24-17.26,26.61a3.81,3.81,0,0,0-.12.51s0,.2-.06.57c-.2,2.76-1,15.09.78,25.83a.53.53,0,0,1-.11.42c-1.17,1.5-28.7,36.78-35.51,40.4-3.26,1.73-9.88,2.62-19,3.87-10.34,1.4-23.23,3.14-37.21,6.88l-.28-1.05c.21,0,.43-.12.64-.16l1-.27a296.31,296.31,0,0,1,35.68-6.46c8.7-1.19,15.58-2.11,18.66-3.75,6.37-3.39,32.82-37.11,35-39.93-2-12.24-.7-26.38-.68-26.51,4-19,15-28.25,18.72-28a.81.81,0,0,1,.63.36c.43.67,0,1.86-1.34,5.53a89.77,89.77,0,0,0-5.31,19.51l1.08-1.75c1.37-2.24,3.25-5.31,5.78-8.81C401.7,9.23,416-.56,420.34,0a1.64,1.64,0,0,1,1.41,1c.54,1.41-.95,3.14-3.65,6.26a93.34,93.34,0,0,0-12.34,17.33c12.1-13.33,26.62-22.24,30.61-20.19a.77.77,0,0,1,.39.55c.11.69-.66,1.5-3.35,4.17a104.61,104.61,0,0,0-18,22.68c8.15-7.12,19.3-14.22,21.35-13.33A.79.79,0,0,1,437.29,19.26Z"/><path class="cls-11" d="M164,173.41l-.06,1.07-.6,0c-10.52-.72-29-2.36-39.07-5.43-10.38-3.13-30.22-34.28-43.36-54.88C76,106.39,71.34,99.07,70.41,98.6,67,96.88,36.59,86.54,34,85.68l-1-.32C18.19,80.52,10.86,77.29,10,75.21a1.18,1.18,0,0,1,0-1c.83-1.77,12.88-.6,22.16.58-5.39-2.17-12-4.45-18.06-6.5C4.06,64.87.53,63.6.08,62.72A.72.72,0,0,1,.15,62c1.32-1.76,22.22.25,34.07,2.21-4.15-2-10-3.77-14.8-5.25-6.84-2.08-9.26-2.9-9.58-4a.86.86,0,0,1,.18-.81c1.78-2.12,20.32,0,29.82,1.94,3.71.73,13.4,2,17.89,2.57l2.35.3L60,60l-.14,0c-1.47-.18-14.13-1.75-19.4-2.71l-.78-.15-.34-.06C28.13,54.89,12.82,53.64,11,54.74c.78.72,5,2,8.77,3.14,5.9,1.8,13.19,4,17.39,6.64a4,4,0,0,1,.44.27.55.55,0,0,1,.21.66.56.56,0,0,1-.6.32l-.34-.07c-13.12-2.5-32-3.85-35.42-3.21,1.58.88,7.36,2.86,13,4.77,7.31,2.5,15.56,5.32,21.35,7.88l.45.2a.56.56,0,0,1,.3.64.55.55,0,0,1-.59.39l-.41-.05C24.16,74.77,12,73.75,10.89,74.71c0,0,0,0,0,.07.43,1,3.91,3.51,22.44,9.56l.55.18.42.14.62.22C40,86.58,67.6,96,70.9,97.64c1.13.57,4.35,5.57,10.94,15.91C94.09,132.78,114.6,165,124.6,168s28.62,4.68,39,5.4Z"/><path class="cls-11" d="M176.9,138.72l-.21,1.05-.64-.13c-7.52-1.5-18.25-2.38-26.91-3.09-7.56-.62-11.9-1-13-1.51-3.32-1.52-43.23-46.21-44.95-50.33L90.48,83c-2.32-5.72-8.37-20.69-13.21-24.16a3.5,3.5,0,0,0-.35-.23l.56-.91.06,0,0,0C82.76,61,88.86,76.08,91.47,82.56l.71,1.73c1.57,3.75,41.4,48.39,44.4,49.77,1,.45,6.4.9,12.65,1.42,8.78.73,19.66,1.62,27.25,3.15Z"/><path class="cls-11" d="M220.29,342.16c-1.79,1.45-7.23,1.49-13,1.55a71.17,71.17,0,0,0-9.89.48c-5,.85-28.21,4.63-48,4.63-2.68,0-5.3-.07-7.82-.22l-.64-.05.16-.63a16.3,16.3,0,0,1,2.77-5.52c-2,.15-5.64.37-9.07.34h-.91l.44-.8a34.42,34.42,0,0,1,3.65-5,32.46,32.46,0,0,1-4.73-.74l-.95-.21.68-.69c.12-.12,12.21-12.25,29.57-14.82,6.48-.94,13.93,1.56,16.74,2.5l.81.27a17.34,17.34,0,0,0,.67-3.29c0-.12,0-.25,0-.37l1.08.13c0,.27-.07.52-.1.75-.55,3.9-1.15,3.9-1.52,3.9A5.12,5.12,0,0,1,179,324c-2.74-.93-10-3.37-16.25-2.45-14.61,2.16-25.41,11.23-28.24,13.81A27.58,27.58,0,0,0,139,336h1.41l-.84.89,0,.05a34.65,34.65,0,0,0-3.73,4.76c4.14,0,8.37-.37,9.26-.44h.17l1.6-.16h.06l-1.23,1.07,0,0a13.18,13.18,0,0,0-3.27,5.41c20.82,1.16,49.37-3.48,54.93-4.43a75.32,75.32,0,0,1,10-.5c5.08,0,10.81-.09,12.32-1.3,2.5-2,2.21-4.1,1.71-7.56a34.09,34.09,0,0,1-.4-8c0-.22,0-.43,0-.66l1.07.11c0,.14,0,.28,0,.42a32,32,0,0,0,.38,8C222.9,337.19,223.27,339.76,220.29,342.16Z"/><path class="cls-11" d="M302.51,354.44l0,.4-.38.08a14.1,14.1,0,0,1-6.23-.37,19.37,19.37,0,0,1,.31,4.56l-.05.51-.5,0a33.15,33.15,0,0,1-11-2.36,27.16,27.16,0,0,1,.29,5.67l-.05.53-.53,0c-15.75-1.33-48.73-11.7-49.88-16.7a36.75,36.75,0,0,1-.69-9.72c0-2,.06-4.05-.09-6.39l0-.49,1.06-.09c0,.19,0,.39,0,.57.16,2.36.13,4.43.09,6.42a36.33,36.33,0,0,0,.67,9.46c.87,3.77,31.11,14.2,48.38,15.82a29.43,29.43,0,0,0-.49-5.85v0l-.21-1,.09,0,.89.45.24.11a31.46,31.46,0,0,0,10.71,2.54,23,23,0,0,0-.51-4.62l-.2-.94h0l.9.32.27.08a13.32,13.32,0,0,0,5.85.59c.08-4.73-5.07-16.5-7.53-18.09-1.09-.71-7.17-1.42-11.19-1.9s-5.13-.62-5.45-.86-.85-.61-.9-10.33V322h1.07v.35c0,4.34.22,9,.52,9.89.48.13,2.81.4,4.89.65,5.85.69,10.43,1.28,11.64,2.06C297.55,336.9,302.93,350,302.51,354.44Z"/><path class="cls-11" d="M284.49,356.25l-1.06.14c0-.33-.07-.66-.12-1-1-7.18-5.29-14-12.83-15.42-3-.74-6,.55-9,.62a11.46,11.46,0,0,1-4.54-.57,11.38,11.38,0,0,0,4.53.43c3.05-.16,6-1.55,9.12-.88a15.85,15.85,0,0,1,11,7.86,25,25,0,0,1,2.83,8.52C284.46,356.06,284.48,356.16,284.49,356.25Z"/><path class="cls-11" d="M295.69,353.65l-1.05.23c-.06-.31-.12-.63-.19-.94a69.81,69.81,0,0,0-1.66-6.89c-.81-2.43-1.59-5.22-3.5-7-2.14-1.64-5.17-.95-7.71-1.3a27.45,27.45,0,0,1-7.83-2,27.29,27.29,0,0,0,7.85,1.74c2.66.28,5.64-.55,8,1.14,2.16,1.85,3,4.61,3.95,7.15s1.48,5,2.06,7.54C295.65,353.45,295.67,353.55,295.69,353.65Z"/><path class="cls-11" d="M420.84,42.19l-.31,1L420,43A11.34,11.34,0,0,1,413,34.94a10.07,10.07,0,0,1-10.16-6.12c-4.52-.63-8.72-4.13-10.1-5.39-.27-.23-.43-.4-.46-.43l.75-.76.35.31c1.17,1.09,5.27,4.58,9.53,5.2l.37.05.34,0,.11.33a1.81,1.81,0,0,0,.11.27,8.83,8.83,0,0,0,9.26,5.41l.29,0,.49,0,.09.5s0,.12,0,.27A10.23,10.23,0,0,0,420.39,42Z"/><path class="cls-11" d="M384.86,35.26h0l-.08,0a15.06,15.06,0,0,1-6.63,1.4,21.87,21.87,0,0,1-4.47-.48l-.61-.17.29-1a5,5,0,0,0,.5.12c1.5.33,6.22,1.15,10.25-.72a1.31,1.31,0,0,0,.27-.12Z"/><path class="cls-11" d="M77.57,57.72l0,0c-12-11-36.63-13.71-39.76-12.07a.94.94,0,0,0-.58.85c0,1.17,2.29,2.43,8.77,5.75,3.68,1.88,8,4.07,11.76,6.43.72.44,1.41.89,2.08,1.34,1.19.8,2.31,1.62,3.32,2.44a.31.31,0,0,0,.09.07,7.57,7.57,0,0,0,1.47.75,8.16,8.16,0,0,0,2.86.55A7,7,0,0,0,70,63.35a23,23,0,0,0,7.23-4.55l.31-.3.39-.4Zm-7.91,4.63a6.86,6.86,0,0,1-5.79-.71c-4.68-3.86-11.74-7.47-17.4-10.37-3.58-1.83-7.61-3.88-8.14-4.72,2.65-1.18,26.16,1,38.08,11.57A22,22,0,0,1,69.66,62.35Z"/><path class="cls-11" d="M66.73,69.87a28.62,28.62,0,0,0-3.6-7.44l-.06-.09.91-.57c.26.49.49,1,.71,1.48A30.48,30.48,0,0,1,66.73,69.87Z"/><path class="cls-11" d="M36.52,75.94A15.33,15.33,0,0,1,35,84.88c-.18.34-.31.55-.33.58l-.91-.58s.08-.13.2-.36a14.27,14.27,0,0,0,1.56-8.2c0-.13,0-.27,0-.4l0-.2.11-.17s.1-.15.23-.41a13.62,13.62,0,0,0,1.1-9.44,2.22,2.22,0,0,0-.07-.31l-.09-.27.17-.21a3.42,3.42,0,0,0,.28-.39c.77-1.09,2.76-4.35,2.17-7.45a3.4,3.4,0,0,0-.07-.34l1-.25a7.05,7.05,0,0,1,.15.8c.47,3.63-1.89,7.15-2.56,8.07A14.47,14.47,0,0,1,36.52,75.94Z"/><path class="cls-11" d="M169.3,97.54l-.06.53h0l-.06.54-.29-.07a26,26,0,0,1-5.29-1.8,24.68,24.68,0,0,0,5.68.79Z"/><path class="cls-11" d="M167.14,17.52A72.3,72.3,0,0,1,156.7,23l0,0-.06,0-.39-1h0A72.91,72.91,0,0,0,167.14,17.52Z"/><path class="cls-11" d="M222,35.42l-.8-.64c-3.7-3.05-7.48-6-11.47-8.73a35.7,35.7,0,0,1,6.38,3.51,61.52,61.52,0,0,1,4.93,3.7c-.14-3.1-1.77-6-3.52-8.55C220.38,27.45,222.56,31.3,222,35.42Z"/><path class="cls-11" d="M232.45,16.66l-1.2,1.19a12.23,12.23,0,0,1-4.56,2.49,9.14,9.14,0,0,1-1.37.35,3.61,3.61,0,0,1-.57.12l-.17-1h0A13,13,0,0,0,229,18.13c-4.82,0-10.46-2.73-16.39-5.57-9.74-4.65-19.8-9.46-27.74-3.51l-.26.19-.3-.14c-8.8-4.34-17.5,1.21-25.91,6.59C154.49,18.2,150.75,20.6,147,22a30.48,30.48,0,0,0,9.25-.05h0l2.72-.54L156.7,23l0,0c-.64.44-10.22,7.07-8.72,15.58l-.52.09h0l-.5.09s0,0,0-.08h0c-1.22-7.17,4.52-12.88,7.53-15.32a35.35,35.35,0,0,1-9.73-.6l-2.13-.46,2.09-.58c4.28-1.19,8.63-4,13.23-6.91C166.43,9.31,175.29,3.64,184.53,8c8.42-6,19.12-.93,28.59,3.59,6.57,3.15,12.78,6.12,17.67,5.33Z"/><path class="cls-11" d="M224.72,20.82A51.2,51.2,0,0,1,205,17.87a50.9,50.9,0,0,0,19.62,1.88Z"/><path class="cls-11" d="M178.73,331.39c-11.11.26-23.31,2.21-31.94,9.67-.39.35-.78.7-1.17,1.07l-.75-.76.15-.14C154.07,333.09,167,331.31,178.73,331.39Z"/><path class="cls-11" d="M173.52,326.61c-11.27-.58-23.2,1.93-32.27,8.89l-1.72,1.36,0,.05-.7-.82L139,336c7.16-5.78,16.3-8.7,25.4-9.39A52.87,52.87,0,0,1,173.52,326.61Z"/></g></g></g></svg>