<svg xmlns="http://www.w3.org/2000/svg" xmlns:xlink="http://www.w3.org/1999/xlink" viewBox="0 0 253.52 377.1"><defs><style>.cls-1{fill:none;}.cls-2{isolation:isolate;}.cls-12,.cls-3{fill:#160b1c;}.cls-3{mix-blend-mode:multiply;opacity:0.2;}.cls-4{fill:#615873;}.cls-5{fill:#fff;}.cls-6{fill:#ece1f0;}.cls-7{fill:#b59dbf;}.cls-8{fill:#d2c3d8;}.cls-9{fill:#efa158;}.cls-10{clip-path:url(#clip-path);}.cls-11{fill:#8cd4e5;}.cls-13{clip-path:url(#clip-path-2);}</style><clipPath id="clip-path"><path class="cls-1" d="M107.27,51.86c2-10.67,21.17-16,24-14.27,3.86,2.3,11.85,19.12,3.81,25.26C119.17,75,105.58,60.88,107.27,51.86Z"/></clipPath><clipPath id="clip-path-2"><path class="cls-1" d="M149.52,59.08c-2.21-11.85,1.7-22.17,4.35-22.15,1.74,0,13.77,4.51,16.19,11.76s.41,12-2.21,14.13S151.08,67.42,149.52,59.08Z"/></clipPath></defs><g class="cls-2"><g id="Layer_2" data-name="Layer 2"><g id="OBJECTS"><ellipse class="cls-3" cx="126.76" cy="350.24" rx="126.76" ry="26.86"/><path class="cls-4" d="M194.91,86.24c.05,2.13-4.85,6.1-10.18,6.56-6.46.55-14.58-3.23-17.26-6.86a3.06,3.06,0,0,1-.73-2.9c1.08-.8,11.39-.37,20.67,1.17l1.56.27.12,0s0,0,0,0v0C194.41,85.51,194.88,86.24,194.91,86.24Z"/><path class="cls-5" d="M189.11,84.53s0,0,0,0l-.12,0-1.56-.27c-9.28-1.54-19.59-2-20.67-1.17a3.06,3.06,0,0,0,.73,2.9,15.2,15.2,0,0,0,5,3.93h0c-2.08-1.27-2.71-5-2.51-5.34s18.27.84,24.7,2.73a2.25,2.25,0,0,0,.28-1s-.5-.73-5.8-1.73Z"/><path class="cls-6" d="M192.84,90.72c-1.25,9.14-5.13,13.31-8.22,15.23a10.34,10.34,0,0,1-5.81,1.67c4-2.76,6.53-8.19,6.51-13.8A16.38,16.38,0,0,0,192.84,90.72Z"/><path class="cls-7" d="M182.6,81.42c-1.44-.48-3-1-4.76-1.7a16.78,16.78,0,0,0-1.59-6c-1.15-2.78-2.33-5.66-1.62-12,1.12-10.05,1.3-28.62-3-35.68-2.31-3.77-9.39-10.68-19.38-16.41,17.6,6.06,23.62,12.9,26.91,21.15,2.31,5.78,1.76,14.12,1.28,21.47a65.93,65.93,0,0,0-.18,11.36c.35,2.79.92,5.39,1.42,7.69C182.51,75.18,183.26,78.57,182.6,81.42Z"/><path class="cls-4" d="M69.21,160.69c-.22.83-.46,1.62-.67,2.4a35.06,35.06,0,0,0-1.77,8.75c-2.27-1.39-4-4.37-3.06-7.05A10,10,0,0,1,69.21,160.69Z"/><path class="cls-6" d="M130.67,203.84a.9.9,0,0,1-.31.6c-1,.77-3.73.48-6,.25a17.76,17.76,0,0,0-4.4-.13l-1.1.23.88.72c2.67,2.19,7.06,6.06,7.4,7.08a4.82,4.82,0,0,1-5,5.74,61.08,61.08,0,0,1-6.39-5.89,59,59,0,0,0,5.66,6.63,5.39,5.39,0,0,1-2,3.75c-1,.68-2.43.71-4.18.09h0a30.82,30.82,0,0,1-5.23-5.52,31.34,31.34,0,0,0,4.3,6.07,4.19,4.19,0,0,1-2.11,1.72,6.12,6.12,0,0,1-4.77-.73c-5.54-2.85-9.84-14.28-9.89-14.4l-.11-.19c-10-10.3-29.08-31.05-29.56-35.76-.36-3.7.53-6.79,1.66-10.71.29-1,.58-2,.87-3.1a25.51,25.51,0,0,1,2.59-.58c8.39-1.43,19,.75,23.86,4.87-.32,2.43-.51,3.94-.51,4l0,.19,16.52,27.68.28,0c.13,0,13.25,1,16.73,5.15A2.92,2.92,0,0,1,130.67,203.84Z"/><path class="cls-8" d="M112.88,196.42,96.36,168.74l0-.19s.19-1.54.51-4c-4.85-4.12-15.47-6.3-23.86-4.87a25.51,25.51,0,0,0-2.59.58c-.29,1.09-.58,2.11-.87,3.1-1.13,3.92-2,7-1.66,10.71.48,4.71,19.54,25.46,29.56,35.76l.11.19a52.6,52.6,0,0,0,4,8c4.73,3.79,7.89,3.77,9.38.79-.31-.5-.6-1-.89-1.5l1,1.27s5.17-.91,5.57-5.1l-.87-1.12.9.91s5.19-3.24,4.65-6.56c-.54-.46-1.06-.9-1.53-1.28l-.88-.72,1.1-.23a4.94,4.94,0,0,1,.81-.08,8.6,8.6,0,0,0,0-6.89,64.55,64.55,0,0,0-7.67-1.15Z"/><path class="cls-9" d="M157.66,229a110,110,0,0,1-24.75,2.58,141.5,141.5,0,0,1-49.81-9.23c-2.1,31.06-6.87,98-7.33,104.39a207,207,0,0,0,38.28,2.85c2.67-13.07,7.19-47.42,9.66-66.89l2-11.92-1,12v0l2.82,63c12.57,3.47,32.63-.8,35.89-1.54C158.58,270.14,157.74,234,157.66,229Z"/><path class="cls-5" d="M86.6,223.62c-1.16-.41-2.32-.83-3.5-1.27-2.1,31.06-6.87,98-7.33,104.39,1.56.28,3.13.54,4.7.77C81.24,312.69,84.58,249.93,86.6,223.62Z"/><path class="cls-6" d="M81.73,226.67c-.42,6.07-.9,13.14-1.43,20.68h0c-6.89,12.87-14.41,18.07-21,22.67a67.06,67.06,0,0,0-8.17,6.28,43.71,43.71,0,0,1,1.08-4.26l.46-1.47-1.27.86c-.16.11-15.46,10.61-22.73,26.83-7.71-11.84-10.17-22.38-7.33-31.36,5-15.79,24.85-23.42,36.7-28l.73-.28a114.64,114.64,0,0,0,14.51-7.37C76.24,229.59,79.09,228,81.73,226.67Z"/><path class="cls-8" d="M28.06,290.93c4.17-15,26.86-31.69,26.86-31.69-.4,3.35-.67,6.31-.67,6.31,3.75-7,18.25-15.28,26.5-24.73.36-5.09.68-9.87,1-14.15-2.64,1.3-5.49,2.92-8.48,4.62a114.64,114.64,0,0,1-14.51,7.37l-.73.28c-11.85,4.55-31.69,12.18-36.7,28-1.66,5.26-1.5,11,.46,17.32C24.85,289.7,28.06,290.93,28.06,290.93Z"/><path class="cls-6" d="M115.72,362.53c-3,1.61-8.52.07-10.07-.41a37.85,37.85,0,0,0,.12-9.39,37.64,37.64,0,0,1-1.18,9.42c-5.63,3.44-12.07.55-13.47-.16a69.33,69.33,0,0,1,1.16-9.26,70,70,0,0,0-2.2,9.2c-2.33,1.11-6.43.9-9.13-.51a5.26,5.26,0,0,1-3-4c-.57-5,1.7-11,3.88-16.73,1.57-4.13,3.06-8.05,3.46-11.49a222.85,222.85,0,0,0,25.22,1.46c-.38,5.7,3.35,11,6.35,15.24a23.32,23.32,0,0,1,3.15,5.25C120.81,354.12,121.39,359.49,115.72,362.53Z"/><path class="cls-8" d="M120.07,351.59c0-.14-.07-.28-.11-.4a23.32,23.32,0,0,0-3.15-5.25c-3-4.26-6.73-9.54-6.35-15.24a222.85,222.85,0,0,1-25.22-1.46c-.4,3.44-1.89,7.36-3.46,11.49a84.89,84.89,0,0,0-3.24,9.7c4.45,6.23,13.74,2.3,13.74,2.3,6.1,3.8,13.49,0,13.49,0C109.87,355.28,117.36,355.05,120.07,351.59Z"/><path class="cls-6" d="M193.59,345.4c0,2.13-1,4.12-2.34,4.61-.83-4.59-6.2-7.09-10.51-6.87,4.19.12,9.33,2.89,9.53,7.43a9.06,9.06,0,0,1-8.43,5.84,7.76,7.76,0,0,0-5.55-7.14,15.88,15.88,0,0,0-3.21-.64,14.34,14.34,0,0,1,3.12.9c2.89,1.16,5.06,4.12,4.55,7.28,0,0,0,.05,0,.07-.22.6-1.71,4-8.39,4-9.19,0-35.08-16.32-36.23-20.3s-1.26-10.49-1.27-12.49c1.56.12,3.15.17,4.75.17a112.89,112.89,0,0,0,20-2.07c-.23,1.6-.53,5.06,1,6.2,1.83,1.39,16.17,6.38,26.79,7.2C193.12,340.05,193.58,344.15,193.59,345.4Z"/><path class="cls-8" d="M164.22,355.38c7.07,1.38,11.66-1.86,12-5.82l-.06,0a14.34,14.34,0,0,0-3.12-.9,15.88,15.88,0,0,1,3.21.64s6.4.35,7.17-5.7a10.85,10.85,0,0,0-2.72-.43,11.33,11.33,0,0,1,2.76.21h0a9,9,0,0,0,2.68-3.85c-10.47-1.08-23.85-5.76-25.62-7.1-1.51-1.14-1.21-4.6-1-6.2a112.89,112.89,0,0,1-20,2.07c-1.6,0-3.19,0-4.75-.17a61.41,61.41,0,0,0,1.06,11.73C143.81,345.41,158.13,354.2,164.22,355.38Z"/><path class="cls-9" d="M154.47,143.16c-1.38-4.1-2.87-8.13-4.53-12.11,1.32,4.09,2.47,8.24,3.48,12.41a103.31,103.31,0,0,1,4.21,21.5c-4.38,12.35-11,30.85-11.86,32.45-.25.09-1,.25-1.69.41-3.47.73-9.94,2.09-10.42,6a2,2,0,0,0,.43,1.67c.8.9,2.46.88,4.37.87.75,0,1.52,0,2.28,0-1.82,1.49-5.41,4.51-6.18,5.77a4.14,4.14,0,0,0,.27,4.73,4.28,4.28,0,0,0,3.51,1.93,5.25,5.25,0,0,0,2.17,3.4,3.85,3.85,0,0,0,3.35.09,4.09,4.09,0,0,0,2,1.63,3.62,3.62,0,0,0,1.27.23,5.39,5.39,0,0,0,2.41-.65c3.11-1.54,8.1-9.81,9.17-11.76,0,0,.06-.13.11-.24,0,4.14,0,11.79-.06,16.09-3.82,1-36,8.91-76.53-6.73.17-2.14,1-12.49,1.51-24.13,6.22,6.91,12,12.87,12.86,13.78.48,1.26,4.68,11.95,10.35,14.87a8.59,8.59,0,0,0,3.88,1.08,5.46,5.46,0,0,0,1.76-.29,5.35,5.35,0,0,0,2.66-2.15,5.49,5.49,0,0,0,4.8-.32,6.32,6.32,0,0,0,2.39-4.31,5.89,5.89,0,0,0,5.74-7.17c-.45-1.33-4.58-4.92-6.7-6.7.8,0,1.78.12,2.79.21,2.69.28,5.47.57,6.75-.48a1.91,1.91,0,0,0,.69-1.33,3.93,3.93,0,0,0-1-3c-3.51-4.17-15.18-5.34-17.19-5.51l-16-26.89c.16-1.33,1.2-9.71,2.44-18.34l1.47-13.09L98.85,150c-.7,4.94-1.35,9.82-1.8,13.32-5.29-4-15.83-6.09-24.21-4.68a17,17,0,0,0-8.1,3.29c6.36-17,16.76-36.68,31.63-40.32,1.76,1.89,13.39,13.34,34.92,13.34,5.28,0,8.91-1.27,10.78-3.78a7.43,7.43,0,0,0,1.14-6.09,9.76,9.76,0,0,1,.31-2.36C155,125.56,164.65,148.14,168.6,160a19.71,19.71,0,0,0-10.39.09A123.51,123.51,0,0,0,154.47,143.16Z"/><path class="cls-5" d="M64.74,161.94a15.82,15.82,0,0,1,6.84-3c5.55-12.56,12.48-28.27,26.68-35.48a24.81,24.81,0,0,1-1.89-1.8C81.5,125.26,71.1,144.92,64.74,161.94Z"/><path class="cls-6" d="M157.78,211.24c-1.76,3.24-6.27,10.11-8.7,11.33a3.64,3.64,0,0,1-2.83.37,3,3,0,0,1-1.47-1.21,19,19,0,0,0,4.14-6.07,18.32,18.32,0,0,1-5.1,5.51h0a3,3,0,0,1-2.75.11,4.32,4.32,0,0,1-1.69-2.87,22.17,22.17,0,0,0,4.74-5.64,21.76,21.76,0,0,1-5.53,4.93,3.4,3.4,0,0,1-3.1-5c.77-1.23,5.28-5,6.94-6.31l1-.75-1.19-.2a22.44,22.44,0,0,0-3.72-.18c-1.58,0-3.07,0-3.56-.51a1,1,0,0,1-.16-.82c.38-3.15,6.59-4.46,9.57-5.09,1.51-.31,2-.43,2.25-.68.59-.6,7.86-20.9,12.14-33l0-.09V165c-.08-1.22-.19-2.49-.37-3.83a19,19,0,0,1,10.64.06,47.13,47.13,0,0,1,1.44,5.25C171.19,170.93,159.41,208.27,157.78,211.24Z"/><path class="cls-8" d="M153.34,218.12a63.76,63.76,0,0,0,4.44-6.88c1.63-3,13.41-40.31,12.65-44.75a47.13,47.13,0,0,0-1.44-5.25,19,19,0,0,0-10.64-.06c.18,1.34.29,2.61.37,3.83v.11l0,.09c-4.28,12.07-11.55,32.37-12.14,33-.25.25-.74.37-2.25.68a37,37,0,0,0-5.37,1.45c-.49,3.23,3.24,5.15,3.24,5.15l1.19.2-1,.75-1.26,1c-.5,2.81,3.34,4.46,3.34,4.46-.41,2.82,4.43,3,4.43,3a1.6,1.6,0,0,0-.09.88l.09-.14-.09.18C149.08,217.21,151.18,218.1,153.34,218.12Z"/><path class="cls-8" d="M177.38,108.47a11.5,11.5,0,0,1-5.2,1.21,16.37,16.37,0,0,1-7.41-2c-1.7-.85-3.36-1.72-5-2.57a114.46,114.46,0,0,0-12.35-5.84c-5.07-2.12-11-3.24-16.13-.74,5-2.86,11.24-2.09,16.5-.27a115.17,115.17,0,0,1,12.49,5.9c1.62.86,3.28,1.71,5,2.56,4.74,2.38,9.1,2.44,12.61.2,3.87-2.46,6.39-7.66,6.39-13.07-.27,0-.52,0-.79,0-6.53,0-14.19-3.75-16.83-7.35a4,4,0,0,1-.85-4c.3-.73,2.32-1,5.08-1a107,107,0,0,1,11.37.83c-6.48-2.17-16.29-6-23.84-11.09a37.31,37.31,0,0,1-8.73-9.22A36.76,36.76,0,0,0,159,70.44a90,90,0,0,0,17.74,8.88,16.57,16.57,0,0,0-1.47-5.18c-1.15-2.77-2.45-5.92-1.69-12.56,1.18-10.64,1.08-28.53-2.88-35-2.64-4.31-11.64-12.77-24.11-18.77h0l-.24-.07v0a66.45,66.45,0,0,0-23.5-6.48C99.28-.54,65.48,14.13,53.24,31.39c-11.8,16.67-12.71,34.3-2.5,48.42,2.45,3.38,2.14,8.56,1.83,14-.4,7.25-.83,14.74,5.7,17.31,1.73.67,2.35-.12,4.23-3a43.12,43.12,0,0,1,11.91-12.4,38.09,38.09,0,0,0,4-3.2h0c7.46-7,7.77-14.75,2.35-31.21a29.31,29.31,0,0,1,1-21.88A42.57,42.57,0,0,1,93,25.83,41.93,41.93,0,0,0,82.75,39.94a28.31,28.31,0,0,0-1,21.1c5.38,16.37,5.14,24.61-2.06,31.77,2.74,5,6.51,8.45,9.85,11.49,5.16,4.7,9.62,8.77,7.58,16.58,1.56,1.67,12.91,13,34.15,13,4.92,0,8.26-1.13,9.92-3.34a6.42,6.42,0,0,0,.94-5.24l0-.15a8.38,8.38,0,0,1,2.45-6.28c3.84-3.68,11-3.42,14.87-3.28l1.14.05c10.38.18,18.07-1.61,21.14-4.92a4.63,4.63,0,0,0,1.31-2.81,10.64,10.64,0,0,1-3.88.79A5.81,5.81,0,0,1,177.38,108.47Z"/><path class="cls-5" d="M135.12,62.85c8-6.14,0-23-3.81-25.26-2.87-1.72-22,3.6-24,14.27C105.58,60.88,119.17,75,135.12,62.85Z"/><path class="cls-5" d="M149.52,59.08c-2.21-11.85,1.7-22.17,4.35-22.15,1.74,0,13.77,4.51,16.19,11.76s.41,12-2.21,14.13S151.08,67.42,149.52,59.08Z"/><g class="cls-10"><circle class="cls-11" cx="127.02" cy="61.48" r="12.47"/><circle class="cls-12" cx="127.02" cy="61.91" r="7.31" transform="translate(-10.85 30.94) rotate(-13.33)"/></g><g class="cls-13"><path class="cls-11" d="M170.56,61.48c0-6.88-4.68-12.46-10.45-12.46s-10.45,5.58-10.45,12.46S154.34,74,160.11,74,170.56,68.37,170.56,61.48Z"/><path class="cls-12" d="M166.2,61.91c0-4-2.74-7.31-6.12-7.31S154,57.87,154,61.91s2.74,7.3,6.13,7.3S166.2,65.94,166.2,61.91Z"/></g><path class="cls-5" d="M133.42,55.43a3,3,0,1,0-3,3A3,3,0,0,0,133.42,55.43Z"/><path class="cls-5" d="M166.47,55.43a3,3,0,1,0-3,3A3,3,0,0,0,166.47,55.43Z"/><path class="cls-7" d="M92.08,6C75.94,11.46,60.64,21,53.24,31.39c-11.8,16.67-12.71,34.3-2.5,48.42,2.45,3.38,2.14,8.56,1.83,14-.4,7.25-.83,14.74,5.7,17.31,1.73.67,2.35-.12,4.23-3a43.12,43.12,0,0,1,11.91-12.4,38.09,38.09,0,0,0,4-3.2h0c7.46-7,7.77-14.75,2.35-31.21a29.31,29.31,0,0,1,1-21.88A41.86,41.86,0,0,1,92.33,26.41l.68-.58C96.11,23,98.16,11.76,92.08,6Z"/><path class="cls-6" d="M176.73,79.32a16.57,16.57,0,0,0-1.47-5.18l-.35-.86a43.76,43.76,0,0,1-13.09-1A99.92,99.92,0,0,0,176.73,79.32Z"/><path class="cls-6" d="M159.45,115.6l1.14.05c10.38.18,18.07-1.61,21.14-4.92a4.63,4.63,0,0,0,1.31-2.81,10.64,10.64,0,0,1-3.88.79,5.81,5.81,0,0,1-1.78-.24,11.5,11.5,0,0,1-5.2,1.21,16.37,16.37,0,0,1-7.41-2c-1.7-.85-3.36-1.72-5-2.57a114.46,114.46,0,0,0-12.35-5.84c-5.07-2.12-11-3.24-16.13-.74,5-2.86,11.24-2.09,16.5-.27a115.17,115.17,0,0,1,12.49,5.9c1.62.86,3.28,1.71,5,2.56,4.74,2.38,9.1,2.44,12.61.2,3.87-2.46,6.39-7.66,6.39-13.07-.27,0-.52,0-.79,0-6.53,0-14.19-3.75-16.83-7.35a4,4,0,0,1-.85-4c.3-.73,2.32-1,5.08-1a107,107,0,0,1,11.37.83c-6.48-2.17-16.29-6-23.84-11.09,0,0-17,11.19-33,6.15s-27,1.55-28.2,11.35c-1.07,8.68,8.38,23,7.3,37.85a50.61,50.61,0,0,0,26.77,7.21c4.92,0,8.26-1.13,9.92-3.34a6.42,6.42,0,0,0,.94-5.24l0-.15a8.38,8.38,0,0,1,2.45-6.28C148.42,115.2,155.59,115.46,159.45,115.6Z"/><path class="cls-12" d="M189.38,83.48l-.27,1v0s0,0,0,0l-.12,0c-.61-.17-3.17-.87-6.71-2h0c-6.48-2.17-16.29-6-23.84-11.09l.61-.89a90,90,0,0,0,17.74,8.88l1.11.4c1.71.66,3.32,1.22,4.76,1.7l1,.33c2.93,1,5,1.54,5.6,1.69l.14,0Z"/><path class="cls-12" d="M189.36,83.47l-.14,0-.44-.07c-1.46-.27-3.84-.63-6.52-.94h0a107,107,0,0,0-11.37-.83c-2.76,0-4.78.27-5.08,1a4,4,0,0,0,.85,4c2.64,3.6,10.3,7.35,16.83,7.35.27,0,.52,0,.79,0l.57,0,.51-.05a16.38,16.38,0,0,0,7.52-3.1,12.34,12.34,0,0,0,1.2-1,5.2,5.2,0,0,0,2-3.49C196,85.72,195.94,84.73,189.36,83.47Zm-4.63,9.33c-6.46.55-14.58-3.23-17.26-6.86a3.06,3.06,0,0,1-.73-2.9c1.08-.8,11.39-.37,20.67,1.17l1.56.27.12,0h0c5.3,1,5.77,1.73,5.8,1.73C195,88.37,190.06,92.34,184.73,92.8Z"/><path class="cls-12" d="M147.79,98.31l-.37,1c-5.07-2.12-11-3.24-16.13-.74C136.32,95.72,142.53,96.49,147.79,98.31Z"/><path class="cls-12" d="M185.32,93.82c0,5.61-2.54,11-6.51,13.8l-.38.26a10.33,10.33,0,0,1-1.05.59,11.5,11.5,0,0,1-5.2,1.21,16.37,16.37,0,0,1-7.41-2c-1.7-.85-3.36-1.72-5-2.57a114.46,114.46,0,0,0-12.35-5.84l.37-1a115.17,115.17,0,0,1,12.49,5.9c1.62.86,3.28,1.71,5,2.56,4.74,2.38,9.1,2.44,12.61.2,3.87-2.46,6.39-7.66,6.39-13.07,0-.18,0-.37,0-.55l1.08,0C185.32,93.47,185.32,93.65,185.32,93.82Z"/><path class="cls-12" d="M194.06,89.51c0,.06,0,.13,0,.19-1.12,10.36-5.42,15-8.85,17.17-.36.21-.71.42-1.06.58a10,10,0,0,1-1.09.47,10.64,10.64,0,0,1-3.88.79,5.81,5.81,0,0,1-1.78-.24l-.25-.07.39-1a4.53,4.53,0,0,0,1.29.23,10.34,10.34,0,0,0,5.81-1.67c3.09-1.92,7-6.09,8.22-15.23.06-.43.12-.87.16-1.32Z"/><path class="cls-12" d="M184.13,107.45a5.47,5.47,0,0,1-1.62,4c-3.27,3.54-11.25,5.46-21.94,5.27l-1.16,0c-3.43-.13-10.58-.4-14.09,3a6.57,6.57,0,0,0-1.43,2.06,6.48,6.48,0,0,0-.37,1,9.76,9.76,0,0,0-.31,2.36,7.43,7.43,0,0,1-1.14,6.09c-1.87,2.51-5.5,3.78-10.78,3.78-21.53,0-33.16-11.45-34.92-13.34l-.24-.26-.18-.21.08-.28c0-.1,0-.2.07-.29,1.87-7.17-2.16-10.84-7.26-15.48-3.35-3-7.13-6.49-10-11.53q-.26-.46-.51-1h0l.93-.48c.12.24.25.47.38.7,2.74,5,6.51,8.45,9.85,11.49,5.16,4.7,9.62,8.77,7.58,16.58,1.56,1.67,12.91,13,34.15,13,4.92,0,8.26-1.13,9.92-3.34a6.42,6.42,0,0,0,.94-5.24l0-.15a8.38,8.38,0,0,1,2.45-6.28c3.84-3.68,11-3.42,14.87-3.28l1.14.05c10.38.18,18.07-1.61,21.14-4.92a4.63,4.63,0,0,0,1.31-2.81,4.69,4.69,0,0,0,0-.75l1.06-.1C184.11,107.2,184.13,107.32,184.13,107.45Z"/><path class="cls-12" d="M135.11,33.71a33.59,33.59,0,0,1-3.34,3c-.77.6-1.54,1.16-2.32,1.66a38.64,38.64,0,0,1-16.06,5.89c-.9.12-1.7.2-2.41.25a24.93,24.93,0,0,1-3.28.06,130.6,130.6,0,0,0,21.65-12.35A4.86,4.86,0,0,1,135.11,33.71Z"/><path class="cls-12" d="M172.07,44.53a22.13,22.13,0,0,1-4.17-.2c-.52-.06-1.1-.14-1.71-.26a31.44,31.44,0,0,1-13-5.54c-.57-.42-1.13-.86-1.7-1.34A32.9,32.9,0,0,1,148,33.71a4,4,0,0,1,5.05-1.53A112.48,112.48,0,0,0,172.07,44.53Z"/><path class="cls-12" d="M133.71,19.63c-1.76-.79-3.44.49-4.92,1.34s-3,2-4.64,2.93c-3.17,1.81-6.86,3.26-10.58,2.86a26.7,26.7,0,0,0,10-3.8C126.2,21.75,130.91,17.65,133.71,19.63Z"/><path class="cls-12" d="M165.7,26.76c-3.36.4-6.66-1.11-9.41-2.92-2.07-1.31-3.85-3-6-4.12a2.33,2.33,0,0,0-2.26-.09c2.41-2,6.71,2.15,8.87,3.32A21.88,21.88,0,0,0,165.7,26.76Z"/><g class="cls-10"><path class="cls-12" d="M127,74.22a12.74,12.74,0,1,1,12.74-12.74A12.75,12.75,0,0,1,127,74.22Zm0-24.93a12.2,12.2,0,1,0,12.2,12.19A12.21,12.21,0,0,0,127,49.29Z"/></g><g class="cls-13"><path class="cls-12" d="M160.11,74.22c-5.91,0-10.72-5.71-10.72-12.74s4.81-12.73,10.72-12.73,10.72,5.71,10.72,12.73S166,74.22,160.11,74.22Zm0-24.93c-5.62,0-10.19,5.47-10.19,12.19s4.57,12.2,10.19,12.2,10.18-5.47,10.18-12.2S165.72,49.29,160.11,49.29Z"/></g><path class="cls-12" d="M138.55,55.69a9.15,9.15,0,0,1-3.65,7.73c-.65.53-1.68,1.22-2.4,1.69-5,3.19-11.7,4.12-17.07,1.24-5.09-2.68-9.37-8.56-8.16-14.49-.62,7.72,6.62,14.47,14,15.11a18.81,18.81,0,0,0,10.83-2.58c.72-.41,1.75-1,2.42-1.51A9.42,9.42,0,0,0,138.55,55.69Z"/><path class="cls-12" d="M138.55,55.69a29.23,29.23,0,0,0-7-16.57,2.22,2.22,0,0,0-2.06-.8h-.06a34.86,34.86,0,0,0-16.06,5.89,15.76,15.76,0,0,0-6.12,7.64A13,13,0,0,1,111,44.47c4.65-5,12.64-7.94,18.52-8.25a5.77,5.77,0,0,1,1.91.28,2,2,0,0,1,.36.17,5.48,5.48,0,0,1,1.24,1A24.23,24.23,0,0,1,138.55,55.69Z"/><path class="cls-12" d="M167.42,63.71A19.45,19.45,0,0,1,155.93,65c-3-.53-6.16-2.68-6.41-6,1.83,6.41,10.21,5.81,15.38,4.44,6.43-1.48,6.64-9.54,5.16-14.82C172.1,53.5,172.42,60.58,167.42,63.71Z"/><path class="cls-12" d="M170.06,48.69a14,14,0,0,0-3.87-4.62,31,31,0,0,0-4-2.68A31.45,31.45,0,0,0,153.86,38a3.11,3.11,0,0,0-.63.53,12.67,12.67,0,0,0-2.12,4.33,45.11,45.11,0,0,0-1.59,16.22,30.93,30.93,0,0,1-.35-16.8,14.68,14.68,0,0,1,2.36-5.09,3.18,3.18,0,0,1,3.88-1c4.5,1.58,9.53,4.18,12.49,8.15A12.81,12.81,0,0,1,170.06,48.69Z"/><path class="cls-12" d="M93,25.83A41.93,41.93,0,0,0,82.75,39.94l-1-.44A42.57,42.57,0,0,1,93,25.83Z"/><path class="cls-12" d="M177.86,80.1l-1.07,0c0-.28,0-.56-.06-.81a16.57,16.57,0,0,0-1.47-5.18c-1.15-2.77-2.45-5.92-1.69-12.56,1.18-10.64,1.08-28.53-2.88-35-2.64-4.31-11.64-12.77-24.11-18.77h0l-.23-.1a66.45,66.45,0,0,0-23.5-6.48C99.28-.54,65.48,14.13,53.24,31.39c-11.8,16.67-12.71,34.3-2.5,48.42,2.45,3.38,2.14,8.56,1.83,14-.4,7.25-.83,14.74,5.7,17.31,1.73.67,2.35-.12,4.23-3a43.12,43.12,0,0,1,11.91-12.4,38.09,38.09,0,0,0,4-3.2,0,0,0,0,1,0,0c7.46-7,7.77-14.75,2.35-31.21a29.31,29.31,0,0,1,1-21.88l1,.44a28.31,28.31,0,0,0-1,21.1c5.38,16.37,5.14,24.61-2.06,31.77l-.82.76A40.29,40.29,0,0,1,75,96.68a42.27,42.27,0,0,0-11.65,12.13C62,111,61,112.47,59.3,112.47a4.07,4.07,0,0,1-1.42-.3c-7.26-2.86-6.81-10.75-6.38-18.36.3-5.3.59-10.29-1.63-13.38-10.5-14.5-9.59-32.6,2.49-49.66C64.78,13.25,99.07-1.63,122.89.14a67.59,67.59,0,0,1,23.92,6.61c1.88.9,3.69,1.86,5.41,2.86,10,5.73,17.07,12.64,19.38,16.41,4.33,7.06,4.15,25.63,3,35.68-.71,6.37.47,9.25,1.62,12a16.78,16.78,0,0,1,1.59,6C177.85,79.84,177.86,80,177.86,80.1Z"/><path class="cls-12" d="M183.62,81.75a3,3,0,0,1-.13.52l-1-.31c0-.17.1-.36.14-.54.66-2.85-.09-6.24-.95-10.14-.5-2.3-1.07-4.9-1.42-7.69a65.93,65.93,0,0,1,.18-11.36c.48-7.35,1-15.69-1.28-21.47-3.29-8.25-9.31-15.09-26.91-21.15-1.76-.61-3.63-1.21-5.64-1.8h0l-.24-.07v0l.29-1,.2,0c22.48,6.63,29.58,14.24,33.32,23.6,2.39,6,1.84,14.48,1.35,22a65.73,65.73,0,0,0-.19,11.15c.34,2.74.91,5.32,1.42,7.58C183.6,75.12,184.37,78.66,183.62,81.75Z"/><path class="cls-12" d="M96.67,121.54l-.3.08c-14.87,3.64-25.27,23.3-31.63,40.32q-.51,1.42-1,2.82s0,0,0,0c-.92,2.68.79,5.66,3.06,7.05a6,6,0,0,0,.7.38l-.43,1-.27-.13c-2.93-1.45-5.27-5.26-4.06-8.65l0-.09C69.06,146.5,80,124.54,96.1,120.58l.32-.09Z"/><path class="cls-12" d="M97.81,164l-.71.8-.21-.18c-4.85-4.12-15.47-6.3-23.86-4.87a25.51,25.51,0,0,0-2.59.58c-.41.12-.83.25-1.23.4a10,10,0,0,0-5.5,4.1l0,.06-.93-.53a8.59,8.59,0,0,1,2-2.38,17,17,0,0,1,8.1-3.29c8.38-1.41,18.92.66,24.21,4.68C97.32,163.54,97.57,163.74,97.81,164Z"/><polygon class="cls-12" points="101.39 137.07 99.92 150.16 98.85 150.01 101.39 137.07"/><path class="cls-12" d="M124.29,205.75c-1-.09-2-.19-2.79-.21,2.12,1.78,6.25,5.37,6.7,6.7a5.89,5.89,0,0,1-5.74,7.17,6.32,6.32,0,0,1-2.39,4.31,5.49,5.49,0,0,1-4.8.32,5.35,5.35,0,0,1-2.66,2.15,5.46,5.46,0,0,1-1.76.29A8.59,8.59,0,0,1,107,225.4c-5.67-2.92-9.87-13.61-10.35-14.87-.89-.91-6.64-6.87-12.86-13.78-.33-.37-.68-.75-1-1.13-7.62-8.51-15.57-18.12-15.9-21.42,0-.38-.06-.76-.08-1.14s0-.82,0-1.22a35.06,35.06,0,0,1,1.77-8.75c.21-.78.45-1.57.67-2.4.09-.31.18-.63.26-1l1,.28c0,.1-.05.2-.07.29-.29,1.09-.58,2.11-.87,3.1-1.13,3.92-2,7-1.66,10.71.48,4.71,19.54,25.46,29.56,35.76l.11.19c0,.12,4.35,11.55,9.89,14.4a6.12,6.12,0,0,0,4.77.73,4.19,4.19,0,0,0,2.11-1.72c.12-.17.16-.28.18-.29l.2-.46.46.17.09,0h0c1.75.62,3.15.59,4.18-.09a5.39,5.39,0,0,0,2-3.75,1.6,1.6,0,0,0,0-.22l0-.51h.67a4.82,4.82,0,0,0,5-5.74c-.34-1-4.73-4.89-7.4-7.08l-.88-.72,1.1-.23a17.76,17.76,0,0,1,4.4.13c2.23.23,5,.52,6-.25a.9.9,0,0,0,.31-.6,2.92,2.92,0,0,0-.78-2.25c-3.48-4.13-16.6-5.14-16.73-5.15l-.28,0L96.36,168.74l0-.19s.19-1.54.51-4c0-.39.1-.81.16-1.25.45-3.5,1.1-8.38,1.8-13.32l1.07.15c-1.24,8.63-2.28,17-2.44,18.34l16,26.89c2,.17,13.68,1.34,17.19,5.51a3.93,3.93,0,0,1,1,3,1.91,1.91,0,0,1-.69,1.33C129.76,206.32,127,206,124.29,205.75Z"/><path class="cls-12" d="M122.32,218.47l-.68.82c-.08-.08-.15-.14-.22-.22a59,59,0,0,1-5.66-6.63,61.08,61.08,0,0,0,6.39,5.89A1.77,1.77,0,0,0,122.32,218.47Z"/><path class="cls-12" d="M115.36,223l-.7.82c-.1-.11-.21-.21-.31-.33a31.34,31.34,0,0,1-4.3-6.07,30.82,30.82,0,0,0,5.23,5.52h0Z"/><path class="cls-12" d="M159.86,228v.39l-.38.12-.75.2c-.28.08-.63.16-1.06.26a110,110,0,0,1-24.75,2.58,141.5,141.5,0,0,1-49.81-9.23l-1-.4-.56-.21-.36-.15,0-.4c0-.12,1-12.13,1.59-25.57,0-.07,0-.15,0-.22l1.06,0-.06,1.3c-.56,11.64-1.34,22-1.51,24.13,40.48,15.64,72.71,7.77,76.53,6.73.06-4.3.06-12,.06-16.09v-2.84h1.07C159.91,208.8,159.92,222.11,159.86,228Z"/><polygon class="cls-12" points="125.74 250.78 124.77 262.81 124.77 262.84 124.27 262.77 123.71 262.7 125.74 250.78"/><path class="cls-12" d="M124.77,262.84q-.36,2.88-.78,6.17c-2.6,20.12-6.56,49.69-9,61.22l-.09.4-.42,0s-1.11,0-3,0h-1.08a222.85,222.85,0,0,1-25.22-1.46c-.35,0-.71-.08-1.06-.13-3-.37-6-.83-9.08-1.4l-.47-.09,0-.48c0-.55,3.06-42.91,5.47-77.25.05-.85.11-1.69.17-2.53h0c.53-7.54,1-14.61,1.43-20.68,0-.42,0-.83.08-1.23.08-1.21.17-2.37.24-3.49,0-.11,0-.23,0-.35l1.08.07c0,.23,0,.46-.05.68-2.1,31.06-6.87,98-7.33,104.39a207,207,0,0,0,38.28,2.85c2.67-13.07,7.19-47.42,9.66-66.89l.56.07Z"/><path class="cls-12" d="M164.64,325.12l-.45.11c-.22.06-1.47.36-3.48.75l-1.13.22a112.89,112.89,0,0,1-20,2.07c-1.6,0-3.19,0-4.75-.17-.35,0-.72-.05-1.07-.1a36.3,36.3,0,0,1-6.86-1.24l-.36-.11L124,269l-.28-6.21.56,0,.5,0v.09l2.82,63c12.57,3.47,32.63-.8,35.89-1.54-4.9-54.15-5.74-90.28-5.82-95.29,0-.36,0-.57,0-.59h1.07v.34c.07,3.9.84,40.52,5.88,95.92Z"/><path class="cls-12" d="M99.15,232.44c-4.5,8-11.42,8.55-13.31,8.55-.31,0-.48,0-.49,0a.53.53,0,0,1-.48-.58.55.55,0,0,1,.59-.49c.31,0,7.88.65,12.76-8a.54.54,0,1,1,.93.54Z"/><path class="cls-12" d="M21.31,266.91c-2.84,9-.38,19.52,7.33,31.36,7.27-16.22,22.57-26.72,22.73-26.83l1.27-.86-.46,1.47a43.71,43.71,0,0,0-1.08,4.26A67.06,67.06,0,0,1,59.27,270c6.62-4.6,14.14-9.8,21-22.67h0l0-.1,1,.51c-.4.74-.78,1.45-1.18,2.13-6.69,11.64-13.87,16.6-20.25,21a57.69,57.69,0,0,0-9.23,7.36l-1.17,1.21.26-1.67a41.59,41.59,0,0,1,1-4.56C46.85,276.17,35,285.89,29.23,299.6l-.39.91-.56-.82c-8.32-12.45-11-23.59-8-33.1,5.17-16.29,25.31-24,37.34-28.65l.73-.29a113.13,113.13,0,0,0,14.37-7.3c3.21-1.82,6.26-3.55,9.09-4.91l.29-.13.46,1-.83.4c-2.64,1.3-5.49,2.92-8.48,4.62a114.64,114.64,0,0,1-14.51,7.37l-.73.28C46.16,243.49,26.32,251.12,21.31,266.91Z"/><path class="cls-12" d="M154.47,143.16l-1.05.3c-1-4.17-2.16-8.32-3.48-12.41C151.6,135,153.09,139.06,154.47,143.16Z"/><path class="cls-12" d="M159.9,208.68c-.48,1.38-.85,2.37-1.06,2.84-.05.11-.08.19-.11.24-1.07,2-6.06,10.22-9.17,11.76a5.39,5.39,0,0,1-2.41.65,3.62,3.62,0,0,1-1.27-.23,4.09,4.09,0,0,1-2-1.63,3.85,3.85,0,0,1-3.35-.09,5.25,5.25,0,0,1-2.17-3.4,4.28,4.28,0,0,1-3.51-1.93,4.14,4.14,0,0,1-.27-4.73c.77-1.26,4.36-4.28,6.18-5.77-.76,0-1.53,0-2.28,0-1.91,0-3.57,0-4.37-.87a2,2,0,0,1-.43-1.67c.48-3.91,7-5.27,10.42-6,.67-.16,1.44-.32,1.69-.41.82-1.6,7.48-20.1,11.86-32.45a103.31,103.31,0,0,0-4.21-21.5l1.05-.3a123.51,123.51,0,0,1,3.74,16.94c.06.36.11.73.14,1.08.18,1.34.29,2.61.37,3.83v.11l0,.09c-4.28,12.07-11.55,32.37-12.14,33-.25.25-.74.37-2.25.68-3,.63-9.19,1.94-9.57,5.09a1,1,0,0,0,.16.82c.49.53,2,.52,3.56.51a22.44,22.44,0,0,1,3.72.18l1.19.2-1,.75c-1.66,1.34-6.17,5.08-6.94,6.31a3.4,3.4,0,0,0,3.1,5h.08l.59-.15.07.6a2,2,0,0,0,.05.27,4.32,4.32,0,0,0,1.69,2.87,3,3,0,0,0,2.75-.11h0l.05,0,.5-.23.21.5s.07.13.2.31a3,3,0,0,0,1.47,1.21,3.64,3.64,0,0,0,2.83-.37c2.43-1.22,6.94-8.09,8.7-11.33,1.63-3,13.41-40.31,12.65-44.75a47.13,47.13,0,0,0-1.44-5.25q-.18-.6-.39-1.23c-3.95-11.87-13.62-34.45-25.08-37.28a3.84,3.84,0,0,0-.46-.11l.21-1.05a6.21,6.21,0,0,1,.62.14c15.81,4.06,27,41.21,27.59,44.6C172.24,170.72,163.25,199.09,159.9,208.68Z"/><path class="cls-12" d="M148.92,215.66a19,19,0,0,1-4.14,6.07,3.08,3.08,0,0,1-.39.35l-.59-.9h0A18.32,18.32,0,0,0,148.92,215.66Z"/><path class="cls-12" d="M144.1,212.78a22.17,22.17,0,0,1-4.74,5.64,2.2,2.2,0,0,1-.28.24l-.61-.89.1-.06A21.76,21.76,0,0,0,144.1,212.78Z"/><path class="cls-12" d="M116.22,363.47c-3.55,1.92-9.76.06-11.09-.38a12.66,12.66,0,0,1-6.65,1.81,18.06,18.06,0,0,1-7.93-2c-2.64,1.25-7.08,1-10.09-.53a6.21,6.21,0,0,1-3.63-4.8c-.59-5.28,1.72-11.35,4-17.22,1.54-4.07,3-7.93,3.4-11.25,0-.17,0-.34,0-.52l1.08.1c0,.18,0,.37-.07.55-.4,3.44-1.89,7.36-3.46,11.49-2.18,5.76-4.45,11.71-3.88,16.73a5.26,5.26,0,0,0,3,4c2.7,1.41,6.8,1.62,9.13.51l.22-.11.27-.14.26.15s.1.07.29.16c1.4.71,7.84,3.6,13.47.16l.18-.1.23-.14.24.08s.15.06.41.13c1.55.48,7.06,2,10.07.41,5.67-3,5.09-8.41,4.24-11.34a23.32,23.32,0,0,0-3.15-5.25c-3-4.26-6.73-9.54-6.35-15.24l.06-.59,1.06.12c0,.16,0,.32,0,.47-.39,5.36,3.22,10.48,6.14,14.63,1.54,2.17,2.87,4.05,3.3,5.55C122.59,356.41,120.86,361,116.22,363.47Z"/><path class="cls-12" d="M105.65,362.12l-.06.48-1.06-.21a1.05,1.05,0,0,0,.06-.24,37.64,37.64,0,0,0,1.18-9.42A37.85,37.85,0,0,1,105.65,362.12Z"/><path class="cls-12" d="M92.28,352.73A69.33,69.33,0,0,0,91.12,362c0,.12,0,.25,0,.37L90,362.24c0-.11,0-.2.06-.31A70,70,0,0,1,92.28,352.73Z"/><path class="cls-12" d="M194.66,345.4c0,2.85-1.51,5.34-3.47,5.75-.57,1.32-3.24,6.44-9.55,6.33-.51,1.18-2.55,4.48-9.29,4.48-9.24,0-35.77-15.92-37.26-21.07-1.21-4.11-1.31-11-1.31-12.89v-.49h1.07v.58c0,2,.14,8.63,1.27,12.49s27,20.3,36.23,20.3c6.68,0,8.17-3.41,8.39-4,0,0,0,0,0-.07v0l.12-.41.42,0h.54a9.06,9.06,0,0,0,8.43-5.84l0-.07.12-.34.34,0a1.41,1.41,0,0,0,.49-.12c1.3-.49,2.34-2.48,2.34-4.61,0-1.25-.47-5.35-6.24-5.8-10.62-.82-25-5.81-26.79-7.2-1.51-1.14-1.21-4.6-1-6.2,0-.39.11-.68.13-.79l1.06.21c0,.12,0,.23-.06.36-.34,1.92-.45,4.84.5,5.56,1.46,1.11,15.55,6.16,26.22,7C192.74,338.94,194.65,342.34,194.66,345.4Z"/><path class="cls-12" d="M181.84,356.41a5.82,5.82,0,0,1,0,.59l-1.08-.12s0,0,0-.07c.51-3.16-1.66-6.12-4.55-7.28a14.34,14.34,0,0,0-3.12-.9,15.88,15.88,0,0,1,3.21.64A7.76,7.76,0,0,1,181.84,356.41Z"/><path class="cls-12" d="M191.34,350.69l-1.06,0a.31.31,0,0,0,0-.09c-.2-4.54-5.34-7.31-9.53-7.43,4.31-.22,9.68,2.28,10.51,6.87C191.29,350.24,191.32,350.47,191.34,350.69Z"/><path class="cls-12" d="M169.58,160.3l-.37,1-.22-.07a19,19,0,0,0-10.64-.06l-.4.13-.36-1,.62-.2A19.71,19.71,0,0,1,168.6,160C169.17,160.16,169.53,160.28,169.58,160.3Z"/><path class="cls-12" d="M159,70.44l-.61.89a37.31,37.31,0,0,1-8.73-9.22A36.76,36.76,0,0,0,159,70.44Z"/></g></g></g></svg>