<svg width="226" height="226" viewBox="0 0 226 226" fill="none" xmlns="http://www.w3.org/2000/svg">
<path d="M172.621 40.7891C165.355 40.7891 159.465 46.6836 159.465 53.9492C159.465 61.2187 165.355 67.1133 172.621 67.1133C179.891 67.1133 185.785 61.2187 185.785 53.9492C185.785 46.6836 179.891 40.7891 172.621 40.7891Z" fill="white"/>
<path d="M114.113 148.363C94.5859 148.363 78.6992 132.48 78.6992 112.949C78.6992 93.4219 94.5859 77.5391 114.113 77.5391C133.641 77.5391 149.523 93.4219 149.523 112.949C149.523 132.48 133.641 148.363 114.113 148.363ZM114.113 57.668C83.6289 57.668 58.8281 82.4688 58.8281 112.949C58.8281 143.434 83.6289 168.234 114.113 168.234C144.598 168.234 169.398 143.434 169.398 112.949C169.398 82.4688 144.598 57.668 114.113 57.668Z" fill="white"/>
<path d="M68.3789 21.8281C42.8398 21.8281 22.0664 42.6016 22.0664 68.1367V157.766C22.0664 183.305 42.8398 204.074 68.3789 204.074H158.004C183.539 204.074 204.316 183.305 204.316 157.766V68.1367C204.316 42.6016 183.539 21.8281 158.004 21.8281H68.3789ZM158.004 225.195H68.3789C31.1953 225.195 0.949219 194.945 0.949219 157.766V68.1367C0.949219 30.9531 31.1953 0.710938 68.3789 0.710938H158.004C195.184 0.710938 225.434 30.9531 225.434 68.1367V157.766C225.434 194.945 195.184 225.195 158.004 225.195Z" fill="white"/>
</svg>
