<svg width="195" height="228" viewBox="0 0 195 228" fill="none" xmlns="http://www.w3.org/2000/svg">
<path d="M194.871 92.2539C193.012 92.4336 191.141 92.5273 189.281 92.5352C168.801 92.5391 149.699 82.2188 138.48 65.0898V158.562C138.48 196.715 107.551 227.645 69.3984 227.645C31.2383 227.645 0.308594 196.715 0.308594 158.562C0.308594 120.406 31.2383 89.4727 69.3984 89.4727C70.8398 89.4727 72.25 89.6055 73.6719 89.6953V123.738C72.25 123.566 70.8594 123.309 69.3984 123.309C49.9219 123.309 34.1406 139.094 34.1406 158.566C34.1406 178.043 49.9219 193.828 69.3984 193.828C88.8711 193.828 106.07 178.484 106.07 159.008L106.422 0.261719H138.988C142.059 29.4648 165.609 52.2773 194.898 54.418V92.2539" fill="white"/>
</svg>
