<svg width="226" height="186" viewBox="0 0 226 186" fill="none" xmlns="http://www.w3.org/2000/svg">
<path d="M224.219 22.7186C217.09 25.9413 209.211 27.8944 201.52 29.1874C205.172 28.5741 210.531 21.9647 212.68 19.2889C215.961 15.2147 218.68 10.5663 220.211 5.55066C220.41 5.16004 220.559 4.66785 220.16 4.37097C219.672 4.17566 219.352 4.27332 218.961 4.47254C210.379 9.0741 201.5 12.4061 192.039 14.7694C191.262 14.9686 190.68 14.7694 190.192 14.2811C189.399 13.3944 188.672 12.5624 187.84 11.8749C183.86 8.49207 179.602 5.84363 174.801 3.88269C168.488 1.31238 161.59 0.222537 154.801 0.663943C148.192 1.09363 141.692 2.95301 135.828 6.01941C129.949 9.09363 124.699 13.3671 120.52 18.5233C116.199 23.8593 113.012 30.1522 111.379 36.8319C109.809 43.2733 109.93 49.6483 110.899 56.1561C111.039 57.2382 110.942 57.3827 109.969 57.2382C73.0001 51.7382 42.3595 38.5077 17.4806 10.1639C16.3986 8.93348 15.8087 8.93348 14.9298 10.2577C4.03919 26.5741 9.32044 52.785 22.922 65.6718C24.7384 67.3866 26.6017 69.1014 28.6095 70.6718C27.8712 70.8202 18.8283 69.8436 10.7619 65.6718C9.67982 64.9843 9.14076 65.3788 9.0392 66.6053C8.94154 68.3671 9.08998 69.9882 9.33998 71.9022C11.422 88.4413 22.879 103.738 38.5704 109.707C40.4298 110.492 42.4884 111.18 44.4884 111.523C40.922 112.308 37.2384 112.867 26.9884 112.062C25.7189 111.82 25.2306 112.457 25.7189 113.68C33.422 134.676 50.0392 140.922 62.4884 144.476C64.1603 144.769 65.8283 144.769 67.5001 145.16C67.3986 145.312 67.3009 145.312 67.1993 145.457C63.0704 151.754 48.7619 156.437 42.09 158.769C29.9611 163.012 16.7619 164.914 3.94154 163.652C1.89076 163.348 1.46107 163.375 0.89857 163.652C0.339976 164 0.828258 164.492 1.48841 165.019C4.08998 166.738 6.73841 168.262 9.44154 169.73C17.5704 174.047 26.0587 177.48 34.9298 179.933C80.7619 192.586 132.379 183.285 166.789 149.101C193.809 122.258 203.281 85.2304 203.281 48.1639C203.281 46.7147 204.988 45.91 206.012 45.1444C213.039 39.8632 218.711 33.5429 223.949 26.4843C225.129 24.8983 225.141 23.4882 225.141 22.91C225.141 22.8085 225.141 22.7186 225.141 22.7186C225.141 22.121 225.129 22.3007 224.219 22.7186Z" fill="white"/>
</svg>
