<svg width="225" height="226" viewBox="0 0 225 226" fill="none" xmlns="http://www.w3.org/2000/svg">
<path d="M63.6992 186.523L67.5 188.789C81.4609 197.102 97.3281 201.5 113.398 201.5C162.98 201.5 203.32 161.164 203.32 111.582C203.32 62 162.98 21.6641 113.398 21.6641C63.8203 21.6641 23.4883 62 23.4883 111.582C23.4883 127.953 28.0312 144.074 36.6406 158.203L38.9688 162.031L29.9883 195.559L63.6992 186.523ZM0.339844 225.195L16.4414 165.145C7.32031 148.703 2.53125 130.281 2.53125 111.582C2.53125 50.4453 52.2695 0.710938 113.398 0.710938C174.539 0.710938 224.281 50.4453 224.281 111.582C224.281 172.719 174.539 222.461 113.398 222.461C95.0508 222.461 76.9219 217.824 60.6992 209.023L0.339844 225.195Z" fill="white"/>
</svg>
