<?xml version="1.0" encoding="utf-8"?>
<!-- Generator: Adobe Illustrator 22.1.0, SVG Export Plug-In . SVG Version: 6.00 Build 0)  -->
<svg version="1.1" xmlns="http://www.w3.org/2000/svg" xmlns:xlink="http://www.w3.org/1999/xlink" x="0px" y="0px"
	 viewBox="0 0 47.323 70.955" style="enable-background:new 0 0 47.323 70.955;" xml:space="preserve">
<path d="M16.525,58.008c0.557,0,1.01,0.451,1.01,1.008c0,0.156-0.037,0.303-0.1,0.434l-4.229,10.773
	c-0.123,0.422-0.51,0.732-0.969,0.732c-0.469,0-0.861-0.322-0.973-0.754l-2.1-6.26l-0.152-0.555l-0.178,0.557L6.34,70.26
	c-0.131,0.402-0.508,0.695-0.957,0.695c-0.469,0-0.859-0.322-0.973-0.754L0.836,59.567c-0.051-0.17-0.107-0.367-0.107-0.512
	c0-0.537,0.422-0.977,0.953-1.004v-0.004h2.387l0,0c0.434,0.002,0.801,0.281,0.939,0.67l0.004,0.01
	c0.006,0.016,0.012,0.033,0.016,0.051l1.475,4.703l0.147,0.553l0.189-0.547l1.168-2.94l-0.314-0.98
	c-0.053-0.17-0.108-0.367-0.108-0.512c0-0.537,0.422-0.977,0.951-1.004v-0.004h2.387l0,0c0.434,0.002,0.803,0.281,0.941,0.67l0,0
	l0.004,0.01c0.006,0.016,0.01,0.033,0.016,0.051l1.473,4.699l0.149,0.557l0.184-0.555l1.898-4.82
	C15.73,58.279,16.095,58.008,16.525,58.008L16.525,58.008z M34.295,58.008c-0.43,0-0.795,0.271-0.939,0.65l-1.898,4.82l-0.184,0.555
	l-0.146-0.557l-1.475-4.699c-0.006-0.018-0.01-0.035-0.016-0.051l-0.004-0.01l0,0c-0.139-0.389-0.508-0.668-0.943-0.67l0,0h-2.385
	v0.004c-0.531,0.027-0.953,0.467-0.953,1.004c0,0.145,0.057,0.342,0.109,0.512l0.316,0.98l-1.17,2.94l-0.19,0.547l-0.146-0.553
	l-1.475-4.703c-0.006-0.018-0.01-0.035-0.016-0.051l-0.004-0.01c-0.139-0.389-0.506-0.668-0.941-0.67l0,0h-2.385v0.004
	c-0.531,0.027-0.953,0.467-0.953,1.004c0,0.145,0.055,0.342,0.107,0.512l3.574,10.635c0.111,0.432,0.504,0.754,0.973,0.754
	c0.447,0,0.828-0.293,0.957-0.695l2.497-6.316l0.178-0.557l0.15,0.555l2.1,6.26c0.113,0.432,0.506,0.754,0.975,0.754
	c0.459,0,0.848-0.311,0.969-0.732l4.229-10.773c0.062-0.131,0.098-0.277,0.098-0.434C35.303,58.459,34.852,58.008,34.295,58.008
	L34.295,58.008z M45.842,58.026c-0.01,0-8.334,0.002-8.334,0.002l0,0c-0.479,0-0.869,0.389-0.869,0.869c0,0,0,0,0,0.002
	l-0.002,0.002c0,0,0,0.863,0,2.107c0,3.008,0,8.959,0,8.959c0,0.01,0-0.008,0,0l0.002,0.002c0.021,0.498,0.434,0.898,0.938,0.898
	l0,0c1.49,0,2.357,0,2.357,0l0,0c0.508-0.006,0.914-0.418,0.922-0.926c0,0.082,0-5.174,0-5.174s3.387-0.002,3.396-0.004
	c0.496-0.01,0.898-0.414,0.898-0.914c0-0.504-0.41-0.914-0.914-0.914c-0.01,0-3.379-0.004-3.379-0.004l-0.002-2.949
	c0,0,5.014,0,5.025-0.002c0.523-0.021,0.94-0.449,0.94-0.977C46.821,58.465,46.383,58.026,45.842,58.026L45.842,58.026z
	 M32.914,22.762c1.521,1.693,1.678,6.746,5.49,4.734c2.287-1.207,2.258-6.305-0.789-8.145c-2.477-1.465-3.83,0.502-4.727,2.924
	C32.821,22.463,32.815,22.653,32.914,22.762L32.914,22.762z M26.992,21.944c0.086-0.072,0.176-0.223,0.176-0.318
	c-0.014-2.746-1.455-5.338-4.301-4.031c-4.078,2.172-3.851,6.855-1.488,8.062C24.318,26.881,25.408,23.264,26.992,21.944
	L26.992,21.944z M30.924,31.174c1.576-0.16,1.225-1.617,0.031-1.977c-1.066-0.322-2.676-0.533-3.822-0.508
	c-2.026,0.045-1.971,1.592-0.92,1.854c0.789,0.264,1.313,0.367,1.999,1.262C28.84,33.014,28.557,31.436,30.924,31.174L30.924,31.174
	z M38.358,5.067c-1.215,2.016-0.959,3.191,0.328,3.73c0.84,0.354,2.385,1.555,3.111,2.561c1.646,2.281,4.178-0.07,5.16-2.018
	c0.73-1.447,0.428-3.502-1.455-5.287C43.776,2.412,40.334,1.778,38.358,5.067L38.358,5.067z M46.223,19.576
	c2.887,9.504-2.104,26.791-6.084,29.414c-3.877,2.549-9.353,3.258-7.621-3.838c2.627-12.4-6.672-9.406-2.836,3.31
	c0.314,1.469,3.205,4.047-1.998,4.729c-9,0.648-11.418-6.328-14.84-14.006c-0.174-0.522-0.478-0.404-0.478-0.147
	c-0.231,4.307,3.988,7.744-2.232,7.744c-3.414-0.264-5.83-0.947-8.67-9.672c-1.232-4.184-0.059-4.772-0.834-7.961
	c-1.582-6.572-0.703-16.346,8.83-21.385c0.908-0.527,1.002-0.23,0.754-0.019C-0.793,15.356,3.025,29.149,10.09,33.68
	c0.24,0.145,0.572,0.156,0.428-0.305c-1.66-5.289-0.34-4.848-0.488-10.033c-0.158-4.885,0.998-10.506,7.779-15.076
	c-2.42-2.945-1.102-5.445,0.783-6.994c1.668-1.373,5.307-2.504,7.098,1.475c1.378,3.061,0.512,3.744-1.088,4.35
	c-0.674,0.256-1.91,1.004-2.641,1.676c-1.41,1.297-1.896,1.176-3.209,0.385c-6.674,8.408-4.264,18.826,3.311,20.705
	c0.773,0.193,1.387,0.613,1.787,1.68c1.84,3.68,3.309,0.264,5.885,1.996c3.572,1.578,2.988-1.559,4.945-1.568
	c7.664-0.037,11.254-6.463,11.08-12.459C45.754,19.026,46.045,18.992,46.223,19.576L46.223,19.576z M31.067,34.611
	c0.017-0.115-0.096-0.088-0.139-0.088c-1.283,0.006-3.174-0.219-5.165-0.678c-0.049-0.012-0.17-0.039-0.172,0.057
	C25.728,36.11,30.205,36.885,31.067,34.611L31.067,34.611z M9.439,48.356c-0.922,0-1.666,0.744-1.666,1.664
	c0,0.92,0.744,1.666,1.666,1.666c0.918,0,1.666-0.746,1.666-1.666C11.105,49.1,10.357,48.356,9.439,48.356z M11.433,50.02
	c0,1.1-0.895,1.992-1.994,1.992c-1.102,0-1.994-0.893-1.994-1.992c0-1.102,0.893-1.994,1.994-1.994
	C10.539,48.026,11.433,48.918,11.433,50.02z M10.299,50.324c-0.082,0.43-0.406,0.697-0.805,0.697c-0.586,0-0.963-0.439-0.963-1.006
	c0-0.576,0.359-1,0.947-1c0.414,0,0.756,0.238,0.816,0.68h-0.289c-0.053-0.236-0.252-0.392-0.523-0.392
	c-0.406,0-0.623,0.305-0.623,0.707c0,0.389,0.242,0.725,0.635,0.725c0.273,0,0.473-0.166,0.512-0.41H10.299z M44.504,53.113
	c-0.922,0-1.666,0.744-1.666,1.664c0,0.922,0.744,1.666,1.666,1.666c0.918,0,1.666-0.744,1.666-1.666
	C46.17,53.858,45.422,53.113,44.504,53.113z M46.496,54.778c0,1.101-0.892,1.992-1.992,1.992c-1.104,0-1.994-0.891-1.994-1.992
	c0-1.104,0.891-1.992,1.994-1.992C45.604,52.785,46.496,53.674,46.496,54.778z M44.158,55.723h-0.285V53.84h0.717
	c0.445,0,0.664,0.164,0.664,0.535c0,0.338-0.211,0.484-0.488,0.52l0.537,0.828h-0.32l-0.496-0.814h-0.328V55.723z M44.5,54.666
	c0.24,0,0.457-0.017,0.457-0.309c0-0.23-0.213-0.275-0.41-0.275h-0.389v0.584H44.5z" fill="white"/>
</svg>
