<svg xmlns="http://www.w3.org/2000/svg" viewBox="0 0 506.41 701.06"><defs><style>.cls-1{fill:#fff;}</style></defs><g id="Layer_2" data-name="Layer 2"><g id="Capa_1" data-name="Capa 1"><path class="cls-1" d="M473.73,24.52C456.49,14.56,462.85,1,434.72,0s-33.57,21.79-32.65,35.4,29,165.08,35.37,196.82-9.07,40.91-20.87,40.8c-36.54-.38-53.46-60.81-117.92-68-39.76-4.45-102.9,7.56-138.29,62-10.15,13.94-21.68,41.71-32.25,41.44,0,0-162-13.21-109.41,24-21,15.28-28.48,43.14-.34,35.88-10.88,21.8-5.45,52.6,26.3,33.57,2.73,35.39,22.7,79.84,87.11-38.08,10.68-17.5,32.38,62.13,82.53,61.67,16.69.13,19,7.1,20,14.88.69,6.07,7.5,33.76,19.89,45.3v194H241.57a10.69,10.69,0,0,0,0,21.37h64.8a10.69,10.69,0,0,0,0-21.37H275.49V485.43c11.9-13.88,16-50.13,28.6-50.87,15.4-.92,105.22-11.9,116.12-88.5,1.8-11.3,16.73-28.41,31.66-39.08,20.12-14.38,35.62-39.32,25.47-78.35-11.84-45.59-39-157.83-39-157.83s-.9-19.94,15.43-19.94,51.69,0,52.6-7.28S491,34.53,473.73,24.52Z"/><path class="cls-1" d="M150.58,692.34a10.73,10.73,0,0,0,10.23,8.72h23.77a9.37,9.37,0,0,0,9.24-8.81L194,689a22.14,22.14,0,0,0-6-14.91l-2.47-2.37a7.37,7.37,0,0,1,.61-11.48l25.38-26.4a7,7,0,0,1,10.93,2.5l28.41,56.82a15.69,15.69,0,0,0,12.77,7.89h18.65a8.06,8.06,0,0,0,8.14-8.8l-.07-.84a21.48,21.48,0,0,0-7.91-13.89l-8.25-5.83c-4-2.8-7.91-12.77-5.53-17,0,0,2.13-6.13,17.28-6.13H319.5c3.45,0,4.49,3.66,6.37,8.14l15.27,36.22a14.42,14.42,0,0,0,12.25,8.13h23.29c4.86,0,8.6-3.6,8.34-8s-3.6-10.49-7.4-13.51l-16.15-12.83c-3.79-3-10.59-17.64-6.75-19.23l15.39-10.09c5.07-2.75,8.8-3.85,12.34-.55L444.84,695a25.92,25.92,0,0,0,15.27,6H477.8c4.86,0,8.83-3.39,8.83-7.52s-3.58-9.24-7.95-11.34l-14.4-6.91A36,36,0,0,1,451.64,664L413,602.28A9,9,0,0,1,415.69,590l12.15-7.87a35.27,35.27,0,0,1,16.22-4.79h6.11c4.84,0,14.31-3,17.43-6.76l6.6-7.84a11.34,11.34,0,0,0,.21-13.69S444,519.51,444,514.66V503.18c0-4.85-3.29-6.59-7.31-3.87l-85.82,58a34,34,0,0,1-16.13,4.94H245.16a22.1,22.1,0,0,1-14.6-6.67L187.71,508.7a8.46,8.46,0,0,0-12.23-.66l-20.81,19.4c-3.54,3.31-2.67,4.8,2,3.31l13.79-4.45a12.62,12.62,0,0,1,13.41,4.56l20.5,30.47a10.46,10.46,0,0,1-1.5,13.22l-31.71,37.1a42.06,42.06,0,0,0-9.47,14.27l-12,33.84a40.83,40.83,0,0,0-1.54,17Z"/></g></g></svg>