<svg xmlns="http://www.w3.org/2000/svg" viewBox="0 0 2136 803.97"><defs><style>.cls-1,.cls-2,.cls-3{fill:#fff;}.cls-2{font-size:679.07px;}.cls-2,.cls-3{font-family:CaviarDreams-Bold, Caviar Dreams;font-weight:700;}.cls-3{font-size:109.52px;letter-spacing:-0.05em;}.cls-4{letter-spacing:-0.09em;}.cls-5{letter-spacing:-0.11em;}</style></defs><g id="Layer_2" data-name="Layer 2"><g id="Capa_1" data-name="Capa 1"><path class="cls-1" d="M473.73,96.89c-17.24-10-10.88-23.57-39-24.5s-33.57,21.79-32.65,35.41,29,165.07,35.37,196.82-9.07,40.9-20.87,40.79c-36.54-.38-53.46-60.81-117.92-68-39.76-4.44-102.9,7.56-138.29,62-10.15,13.95-21.68,41.71-32.25,41.44,0,0-162-13.2-109.41,24-21,15.29-28.48,43.15-.34,35.88-10.88,21.8-5.45,52.61,26.3,33.58,2.73,35.38,22.7,79.83,87.11-38.09,10.68-17.5,32.38,62.14,82.53,61.67,16.69.13,19,7.1,20,14.89.69,6.07,7.5,33.76,19.89,45.29v194H241.57a10.69,10.69,0,0,0,0,21.38h64.8a10.69,10.69,0,0,0,0-21.38H275.49V557.8c11.9-13.89,16-50.13,28.6-50.88,15.4-.91,105.22-11.89,116.12-88.5,1.8-11.29,16.73-28.41,31.66-39.08C472,365,487.49,340,477.34,301c-11.84-45.59-39-157.82-39-157.82s-.9-19.95,15.43-19.95,51.69,0,52.6-7.27S491,106.89,473.73,96.89Z"/><path class="cls-1" d="M150.58,764.71a10.73,10.73,0,0,0,10.23,8.71h23.77a9.37,9.37,0,0,0,9.24-8.81l.15-3.24a22.18,22.18,0,0,0-6-14.91l-2.47-2.36a7.38,7.38,0,0,1,.61-11.49l25.38-26.4a7,7,0,0,1,10.93,2.5l28.41,56.82a15.67,15.67,0,0,0,12.77,7.89h18.65a8.06,8.06,0,0,0,8.14-8.79l-.07-.85c-.39-4.83-4-11.09-7.91-13.88l-8.25-5.83c-4-2.81-7.91-12.78-5.53-17,0,0,2.13-6.12,17.28-6.12H319.5c3.45,0,4.49,3.66,6.37,8.13l15.27,36.23a14.43,14.43,0,0,0,12.25,8.12h23.29c4.86,0,8.6-3.6,8.34-8s-3.6-10.48-7.4-13.5l-16.15-12.84c-3.79-3-10.59-17.63-6.75-19.23l15.39-10.08c5.07-2.76,8.8-3.86,12.34-.55l62.39,58.18a25.92,25.92,0,0,0,15.27,6H477.8c4.86,0,8.83-3.38,8.83-7.52s-3.58-9.24-7.95-11.34l-14.4-6.91a35.93,35.93,0,0,1-12.64-11.3L413,674.64a9,9,0,0,1,2.72-12.27l12.15-7.87a35.16,35.16,0,0,1,16.22-4.8h6.11c4.84,0,14.31-3,17.43-6.75l6.6-7.85a11.33,11.33,0,0,0,.21-13.68S444,591.87,444,587V575.55c0-4.85-3.29-6.6-7.31-3.88l-85.82,58a33.89,33.89,0,0,1-16.13,4.94H245.16a22.06,22.06,0,0,1-14.6-6.67l-42.85-46.92a8.46,8.46,0,0,0-12.23-.66l-20.81,19.4c-3.54,3.31-2.67,4.8,2,3.31l13.79-4.44a12.62,12.62,0,0,1,13.41,4.55l20.5,30.47a10.47,10.47,0,0,1-1.5,13.23L171.11,684a42.16,42.16,0,0,0-9.47,14.27l-12,33.84a40.85,40.85,0,0,0-1.54,17Z"/><text class="cls-2" transform="translate(552 604.79) scale(0.91 1)">ZOO</text><text class="cls-3" transform="translate(590.56 772.74) scale(0.91 1)">DEN FÖRS<tspan class="cls-4" x="472.66" y="0">T</tspan><tspan x="519.65" y="0">A DIGI</tspan><tspan class="cls-4" x="812.89" y="0">T</tspan><tspan x="859.87" y="0">ALA DJUR</tspan><tspan class="cls-5" x="1309.38" y="0">P</tspan><tspan x="1358.13" y="0">ARKER</tspan></text></g></g></svg>